<?xml version="1.0" encoding="UTF-8" standalone="no"?>
<!DOCTYPE svg PUBLIC "-//W3C//DTD SVG 1.1//EN" "http://www.w3.org/Graphics/SVG/1.1/DTD/svg11.dtd">
<svg width="100%" height="100%" viewBox="0 0 138 142" version="1.1" xmlns="http://www.w3.org/2000/svg" xmlns:xlink="http://www.w3.org/1999/xlink" xml:space="preserve" xmlns:serif="http://www.serif.com/" style="fill-rule:evenodd;clip-rule:evenodd;stroke-linejoin:round;stroke-miterlimit:2;">
    <g transform="matrix(1,0,0,1,-222.172,-180.289)">
        <path d="M300.285,254.245C301.649,254.047 303.113,254.394 304.421,254.968C307.392,256.271 310.489,256.666 313.671,256.88C315.128,256.978 316.636,257.227 317.989,257.745C320.706,258.789 323.507,258.843 326.343,259.054C332.223,259.491 338.149,260.201 343.542,262.646C347.555,264.466 352.054,264.838 355.951,267.768C356.446,265.393 356.641,263.462 357.26,261.681C359.088,256.427 357.984,251.146 357.634,245.871C357.584,245.123 357.461,244.315 356.323,244.3C352.134,244.248 347.871,243.546 343.798,244.83C339.903,246.058 336.076,246.404 332.084,245.574C330.067,245.155 328.023,245.339 326.01,245.875C325.141,246.105 324.219,246.243 323.32,246.24C317.28,246.222 311.398,247.383 305.466,248.331C302.015,248.882 299.688,249.768 300.285,254.245ZM318.846,186.857C317.808,186.558 317.269,186.269 316.729,186.268C312.572,186.264 308.706,185.2 304.888,183.575C299.758,181.393 294.415,180.765 288.941,182.371C288.08,182.624 287.157,182.678 286.26,182.802C281.437,183.467 276.618,184.173 271.785,184.76C270.176,184.956 269.877,185.564 269.953,187.18C270.154,191.445 271.155,195.45 272.938,199.3C275.559,204.957 278.075,210.65 279.805,216.667C280.929,220.578 281.902,224.542 283.965,228.145C284.607,229.267 284.738,230.747 284.871,232.085C285.32,236.602 285.279,236.61 289.762,237.201C290.883,237.349 292.016,237.422 293.133,237.599C294.309,237.784 294.974,237.491 295.367,236.216C297.527,229.235 301.395,222.988 304.918,216.735C310.291,207.2 313.08,196.594 318.846,186.857ZM273.976,229.017L273.94,228.985C274.814,231.884 277.29,233.657 278.9,236.039C279.666,237.172 280.475,237.229 281.753,236.588C284.311,235.305 284.441,235.409 283.96,232.618C283.596,230.512 283.205,228.41 282.025,226.516C281.007,224.88 280.497,222.995 279.976,221.137C278.412,215.572 276.644,210.075 274.233,204.812C271.735,199.356 268.821,194.044 268.92,187.781C268.923,187.567 268.77,187.355 268.732,187.135C268.524,185.918 268.081,185.359 266.682,185.924C264.164,186.938 261.627,187.998 258.999,188.612C256.374,189.226 254.143,190.401 252.028,191.961C248.161,194.816 247.967,195.101 251.077,198.615C254.877,202.906 257.881,207.662 260.501,212.712C261.605,214.841 263.064,216.737 264.778,218.409C266.414,220.003 267.766,221.809 269.123,223.635C270.563,225.572 271.802,227.727 273.976,229.017ZM352.777,214.77C356.319,218.119 358.171,222.335 358.409,227.098C358.736,233.662 358.717,240.244 358.815,246.818C358.866,250.21 360.005,253.54 359.311,256.979C358.391,261.529 357.681,266.127 356.395,270.597C352.473,284.236 344.94,295.519 334.903,305.539C327.32,313.108 318.203,316.536 308.16,318.544C305.494,319.076 302.766,319.421 300.186,320.234C294.632,321.988 289.085,322.131 283.406,321.029C278.403,320.059 273.371,319.229 268.354,318.34C262.049,317.224 256.052,315.126 251.364,310.377C250.572,309.574 249.666,308.854 248.718,308.24C242.395,304.148 237.507,298.694 233.508,292.379C232.045,290.069 230.795,287.679 230.067,285.009C229.321,282.273 228.328,279.621 226.93,277.124C224.147,272.153 223.803,266.542 222.729,261.103C221.417,254.456 222.717,248.004 223.624,241.5C223.952,239.145 224.5,236.796 224.562,234.435C224.651,231.053 225.558,227.954 226.98,224.95C229.305,220.041 230.991,214.801 234.513,210.511C234.934,209.998 235.281,209.339 235.424,208.695C236.239,205.042 238.61,202.465 241.369,200.239C245.696,196.748 249.161,192.276 253.931,189.291C254.704,188.807 255.44,188.318 256.314,188.026C265.902,184.825 275.645,182.362 285.78,181.694C287.016,181.613 288.256,181.364 289.457,181.052C295.453,179.494 301.185,180.417 306.694,182.961C309.43,184.224 312.319,185.019 315.231,185.003C321.394,184.971 326.356,187.857 331.244,190.97C333.436,192.366 335.416,194.117 337.395,195.82C339.314,197.471 340.839,199.514 341.638,201.909C342.889,205.66 345.385,208.329 348.464,210.59C349.934,211.668 351.381,212.77 352.36,214.355C352.145,214.479 351.93,214.602 351.715,214.726C347.712,211.203 342.712,208.678 340.664,203.386C339.486,203.649 338.762,204.235 338.271,204.987C336.869,207.14 334.818,208.517 332.73,209.875C330.061,211.609 327.662,213.631 325.696,216.171C324.244,218.046 322.553,219.704 320.441,220.865C320.274,220.692 320.108,220.519 319.941,220.346C326.002,213.376 333.737,208.187 340.309,201.512C335.725,194.485 329.072,190.572 321.845,187.388C320.611,186.844 320.044,187.364 319.409,188.364C316.969,192.211 315.095,196.348 313.618,200.613C310.526,209.541 305.391,217.442 301.305,225.867C299.292,230.014 296.624,233.869 295.852,238.546C292.625,238.683 289.401,238.674 286.314,237.573C284.319,236.86 282.559,237.053 280.903,238.407C280.114,239.052 279.268,239.637 278.402,240.178C277.255,240.895 276.488,241.8 276.701,243.233C277.039,245.512 275.92,246.895 273.979,247.801C273.807,247.349 273.866,246.953 274.147,246.538C275.82,244.063 275.804,244.024 273.091,242.778C272.781,242.636 272.469,242.497 272.148,242.386C263.998,239.554 256.45,235.358 248.55,231.961C247.308,231.427 246.083,230.782 244.983,230C241.728,227.687 238.213,225.892 234.489,224.487C233.115,223.969 231.724,223.493 230.924,222.118C231.151,221.905 231.299,221.681 231.721,221.911C237.073,224.831 242.506,227.631 247.93,230.378C256.763,234.852 265.676,239.292 275.506,242.537C275.408,240.052 277.758,239.531 279.284,238.051C273.679,231.754 269.042,224.871 263.437,218.771C261.586,216.756 259.926,214.599 258.726,212.131C255.892,206.297 251.746,201.408 247.64,196.482C242.56,200.415 237.499,204.238 235.629,210.807C235.304,211.951 234.277,212.886 233.625,213.949C232.855,215.201 232.136,216.485 231.404,217.761C230.592,219.174 230.245,220.635 231.007,222.192C230.364,222.134 229.701,221.909 229.323,222.761C227.678,226.47 225.768,230.078 225.718,234.305C225.7,235.875 225.423,237.449 225.173,239.007C224.547,242.908 225.046,243.712 228.928,244.418C230.023,244.617 231.179,244.557 232.303,244.509C234.105,244.432 235.925,244.024 237.698,244.186C241.739,244.554 245.765,245.129 249.782,245.72C255.805,246.605 261.806,247.645 267.836,248.471C269.905,248.755 272.091,249.041 274.018,247.717C273.51,249.197 273.998,250.685 273.977,252.169C272.652,251.698 272.971,249.648 270.864,249.593C262.813,249.384 254.99,247.224 246.999,246.438C243.282,246.073 239.605,245.149 235.843,245.407C232.024,245.668 228.209,246.132 224.495,244.216C222.334,254.207 223.553,263.729 226.526,272.955C228.074,277.761 230.658,282.249 232.156,287.134C232.196,287.264 232.493,287.314 232.758,287.447C234.378,285.427 235.76,283.189 237.8,281.513C240.701,279.128 243.265,276.393 245.876,273.702C250.268,269.177 255.374,265.502 261.096,262.983C265.15,261.199 269.008,259.076 273.01,257.235C274.672,256.472 274.871,255.501 274.515,254.047C274.354,253.394 274.118,252.758 273.917,252.115C274.92,251.713 275.059,252.627 275.199,253.132C275.559,254.426 275.857,255.759 275.965,257.093C276.068,258.387 276.7,259.033 277.785,259.653C282.361,262.271 287.34,261.722 292.256,261.61C292.985,261.593 293.729,261.097 294.416,260.727C294.916,260.456 294.941,260.925 295.175,261.07C294.888,261.399 294.661,261.827 294.306,262.041C291.985,263.427 291.998,263.404 292.904,266.075C293.771,268.63 295.15,271.011 295.603,273.699C296.287,277.772 298.038,281.401 300.052,284.943C302.842,289.849 305.463,294.808 306.219,300.545C306.454,302.331 307.553,303.864 308.69,305.294C309.237,305.98 310.105,306.467 310.171,307.483C307.22,306.265 305.912,303.599 305.42,300.869C304.331,294.828 301.639,289.55 298.626,284.351C297.263,281.998 295.881,279.599 295.386,276.915C294.6,272.653 292.696,268.776 291.516,264.661C291.106,263.234 290.303,262.604 288.843,262.631C287.029,262.665 285.104,263.012 283.427,262.527C280.853,261.784 279.805,263.134 278.522,264.861C275.431,269.022 272.495,273.33 268.55,276.785C267.947,276.498 268.159,276.08 268.438,275.739C269.439,274.51 270.465,273.301 271.494,272.094C274.339,268.757 277.009,265.293 279.554,261.727C278.066,260.524 276.102,260.52 275.458,258.912C274.782,257.223 273.966,257.744 272.867,258.35C270.094,259.882 267.517,261.819 264.513,262.875C257.168,265.455 251.147,269.994 245.78,275.453C243.55,277.722 241.375,280.042 238.904,282.04C236.923,283.642 235.574,285.728 234.046,287.694C233.107,288.903 233.299,289.938 234.103,291.059C235.757,293.36 237.302,295.747 239.053,297.971C242.023,301.741 245.752,304.676 249.857,307.451C251.066,304.346 252.247,301.438 252.77,298.307C253.143,296.067 253.575,293.83 254.936,291.933C258.708,286.673 262.76,281.641 267.279,276.999C267.596,276.674 268.01,276.016 268.607,276.736C268.492,277.457 267.978,277.94 267.503,278.399C263.487,282.28 260.332,286.873 256.866,291.208C255.725,292.636 254.678,294.164 254.37,295.974C253.763,299.555 252.946,303.062 251.549,306.424C251.021,307.693 251.3,308.604 252.379,309.673C255.808,313.072 260.006,315.011 264.523,316.169C271.086,317.853 277.858,318.541 284.502,319.837C289.05,320.725 293.478,320.833 297.883,319.535C301.583,318.444 305.361,317.773 309.132,317.046C312.214,316.451 312.897,315.521 311.985,312.521C311.596,311.238 310.852,310.064 310.308,308.824C310.114,308.384 309.439,307.979 310.093,307.399C312.738,309.55 312.778,312.82 313.462,315.858C316.732,315.276 319.535,314.17 322.448,312.518C320.909,312.108 319.702,311.783 318.794,310.864C317.605,309.66 317.476,308.146 318.428,306.903C319.427,305.599 320.542,305.571 322.464,306.805C322.019,306.802 321.571,306.769 321.129,306.802C320.006,306.888 319.154,307.375 319.063,308.595C318.983,309.667 319.808,310.194 320.621,310.589C322.376,311.44 323.17,310.843 323.146,308.763C323.142,308.324 323.156,307.887 323.161,307.448C323.873,306.815 324.188,307.53 324.302,307.934C324.539,308.778 324.581,309.677 324.704,310.554C324.69,310.813 324.564,311.186 324.686,311.305C324.936,311.549 325.175,311.309 325.33,311.054C328.613,310.07 330.863,307.798 332.779,305.44C329.915,301.48 326.101,298.633 324.26,294.222C323.822,293.175 323.059,292.308 322.067,291.689C319.367,290.006 317.718,287.475 316.346,284.694C315.241,282.456 314.084,280.169 311.962,278.747C308.221,276.239 306.369,272.347 304.169,268.688C305.853,269.193 306.528,270.7 307.38,271.997C308.503,273.708 309.533,275.507 311.213,276.73C314.229,278.93 316.36,281.8 317.955,285.13C319.002,287.316 320.461,289.161 322.523,290.509C323.575,291.196 324.584,292.049 325.057,293.212C326.905,297.761 331.072,300.483 333.781,304.8C344.436,294.505 352.075,282.75 355.655,268.608C352.305,266.766 348.655,266.196 345.458,264.672C340.022,262.08 334.21,261.46 328.46,260.333C325.228,259.701 321.872,260.412 318.709,259.177C316.161,258.184 313.466,257.753 310.736,257.697C308.885,257.659 307.171,257.224 305.48,256.499C304.343,256.011 303.11,255.749 301.951,255.306C300.579,254.782 299.645,254.762 299.305,256.58C299.098,257.681 298.726,258.965 297.17,259.051C297.02,258.55 297.447,258.254 297.585,257.858C298.752,254.52 300.131,251.322 299.436,247.511C299.025,245.26 298.583,242.919 298.56,240.575C299.058,240.471 299.126,241.431 299.736,241.05L299.696,240.997C299.833,242.46 299.978,243.924 300.105,245.389C300.329,247.944 300.707,248.277 303.24,247.836C307.462,247.101 311.596,245.865 315.905,245.626C318.728,245.47 321.601,245.573 324.358,245.064C327.741,244.44 331.07,244.257 334.473,244.597C336.387,244.788 338.414,245.101 340.216,244.456C345.705,242.488 351.33,243.139 356.999,243.261C357.453,241.847 357.892,240.386 357.619,238.946C356.998,235.677 357.142,232.378 357.27,229.12C357.481,223.824 355.371,219.497 352.4,215.406C352.526,215.194 352.652,214.982 352.777,214.77Z" style="fill:rgb(40,32,36);fill-rule:nonzero;"/>
        <path d="M352.36,214.355C352.541,214.451 352.681,214.589 352.777,214.77C352.652,214.982 352.526,215.194 352.4,215.406C352.015,215.337 351.787,215.109 351.715,214.726C351.93,214.602 352.145,214.479 352.36,214.355Z" style="fill:rgb(40,32,36);fill-rule:nonzero;"/>
        <path d="M280.514,303.461C277.967,303.365 276.175,304.978 276.02,307.506C275.86,310.104 278.135,312.83 280.55,312.936C282.793,313.033 285.239,310.773 285.342,308.508C285.422,306.745 282.346,303.53 280.514,303.461ZM286.305,308.203C286.396,311.363 283.795,314.145 280.619,314.282C277.726,314.407 274.698,311.275 274.582,308.034C274.445,304.236 276.317,302.504 280.781,302.297C283.189,302.186 286.225,305.432 286.305,308.203Z" style="fill:rgb(40,32,36);fill-rule:nonzero;"/>
        <path d="M282.216,286.327C278.986,286.938 277.934,288.345 279.089,290.565C279.629,291.604 280.48,292.358 281.703,292.39C282.808,292.418 283.484,291.651 284.124,290.834C284.799,289.972 284.488,288.888 284.892,287.978C285.706,290.049 285.303,291.712 283.703,292.88C282.38,293.846 280.709,293.837 279.301,292.856C277.743,291.772 276.969,289.439 277.599,287.726C278.189,286.118 279.451,285.351 281.352,285.476C281.85,285.509 282.168,285.799 282.216,286.327Z" style="fill:rgb(40,32,36);fill-rule:nonzero;"/>
        <path d="M284.873,271.965C286.414,273.306 286.58,274.077 285.585,275.264C284.599,276.439 282.799,276.611 281.643,275.641C280.561,274.731 280.407,272.739 281.341,271.689C282.669,270.195 284.083,270.326 284.928,272.021C284.281,271.999 283.576,271.804 283.001,271.997C282.166,272.276 281.382,272.842 281.855,273.956C282.235,274.848 282.927,275.429 283.939,275.188C284.908,274.957 285.466,274.364 285.074,273.242C284.935,272.842 284.937,272.392 284.873,271.965Z" style="fill:rgb(40,32,36);fill-rule:nonzero;"/>
        <path d="M282.757,286.359C282.752,286.757 282.51,286.796 282.208,286.703C282.006,286.641 281.994,286.478 282.157,286.267C282.344,286.384 282.544,286.414 282.757,286.359Z" style="fill:rgb(40,32,36);fill-rule:nonzero;"/>
        <path d="M342.928,223.586C344.058,222.011 345.246,221.167 346.715,221.309C349.529,221.582 351.597,223.23 352.861,225.612C353.874,227.521 353.582,229.563 352.154,231.343C350.52,233.382 348.48,234.33 345.871,233.759C344.429,233.444 343.033,232.981 341.852,232.037C338.902,229.679 339.248,225.126 342.544,223.161C342.606,223.124 342.851,223.393 343.009,223.519C342.612,224.055 342.142,224.551 341.835,225.134C340.158,228.315 341.127,230.816 344.532,232.107C345.265,232.384 346.034,232.624 346.807,232.724C348.982,233.007 350.38,231.748 351.594,230.171C352.609,228.851 352.608,227.502 351.801,226.08C350.077,223.043 347.16,222.054 343.909,223.409C343.609,223.534 343.256,223.53 342.928,223.586Z" style="fill:rgb(40,32,36);fill-rule:nonzero;"/>
        <path d="M331.009,230.563C331.448,231.081 331.928,231.571 332.32,232.123C333.898,234.342 333.823,236.118 332.127,237.528C330.222,239.111 326.201,239.282 324.859,237.836C323.464,236.333 323.45,234.583 324.812,231.909C324.989,232.129 325.167,232.349 325.345,232.568C325.26,232.897 325.166,233.225 325.094,233.556C324.666,235.511 325.186,237.014 326.488,237.604C327.876,238.233 330.801,237.53 331.837,236.302C333.018,234.901 332.072,233.809 331.305,232.682C330.988,232.218 330.727,231.717 330.439,231.234C330.629,231.01 330.818,230.786 331.009,230.563Z" style="fill:rgb(40,32,36);fill-rule:nonzero;"/>
        <path d="M329.818,195.791C331.079,197.752 330.944,199.011 329.334,200.294C327.89,201.446 325.751,201.555 324.688,200.532C323.336,199.229 323.266,196.319 324.555,194.978C325.707,193.779 327.779,193.598 329.115,194.645C329.324,194.808 329.299,195.27 329.382,195.594C328.457,195.242 327.536,194.873 326.514,195.153C325.372,195.465 324.87,196.397 324.817,197.396C324.767,198.362 324.993,199.423 326.061,199.936C327.016,200.395 327.803,199.851 328.54,199.384C329.876,198.539 329.497,197.029 329.818,195.791Z" style="fill:rgb(40,32,36);fill-rule:nonzero;"/>
        <path d="M314.179,213.214C316.16,213.877 316.026,215.314 315.31,216.752C314.662,218.052 312.647,218.529 311.428,217.861C310.186,217.181 309.674,215.322 310.358,213.98C311.097,212.532 312.152,212.333 314.213,213.258C313.874,214.264 313.075,213.413 312.518,213.674C311.544,214.129 311.133,214.838 311.395,215.835C311.616,216.675 312.167,217.225 313.15,216.919C314.109,216.622 314.66,216.048 314.559,214.943C314.503,214.341 313.52,213.955 314.179,213.214Z" style="fill:rgb(40,32,36);fill-rule:nonzero;"/>
        <path d="M321.031,204.419C321.222,204.396 321.532,204.289 321.585,204.363C322.561,205.736 322.188,206.891 320.907,207.809C319.455,208.849 317.68,208.679 316.704,207.376C315.778,206.142 315.777,204.871 316.953,203.777C317.344,203.414 317.897,203.228 318.377,202.96C318.494,203.571 318.213,204 317.785,204.403C316.865,205.273 316.916,206.292 317.897,206.917C318.73,207.446 319.821,207.426 320.657,206.627C321.317,205.996 320.916,205.158 321.031,204.419Z" style="fill:rgb(40,32,36);fill-rule:nonzero;"/>
        <path d="M300.123,232.017C301.348,230.709 302.788,230.552 303.913,231.886C304.661,232.771 304.463,234.071 303.527,234.979C302.35,236.123 301.164,236.235 300.07,234.832C300.32,234.631 300.571,234.431 300.822,234.231C301.923,234.75 303.123,234.675 303.101,233.33C303.075,231.744 301.787,232.25 300.815,232.614C300.585,232.415 300.353,232.216 300.123,232.017Z" style="fill:rgb(40,32,36);fill-rule:nonzero;"/>
        <path d="M312.047,229.348C310.359,231.562 308.672,233.775 306.983,235.988C307.686,233.073 309.466,230.933 311.474,228.95C311.665,229.083 311.856,229.215 312.047,229.348Z" style="fill:rgb(40,32,36);fill-rule:nonzero;"/>
        <path d="M317.424,223.983C316.251,225.593 314.862,226.988 313.244,228.152C313.1,227.956 312.956,227.76 312.811,227.563C314.052,226.072 315.399,224.688 316.919,223.479C317.088,223.646 317.256,223.815 317.424,223.983Z" style="fill:rgb(40,32,36);fill-rule:nonzero;"/>
        <path d="M305.001,227.34C303.958,226.281 304.138,225.091 304.932,224.094C305.944,222.821 307.268,223.316 308.51,223.835C308.29,224.05 308.07,224.265 307.851,224.479C305.553,224.472 305.429,224.595 305.621,226.686C305.415,226.904 305.208,227.122 305.001,227.34Z" style="fill:rgb(40,32,36);fill-rule:nonzero;"/>
        <path d="M299.736,241.05C301.276,239.808 302.816,238.565 304.356,237.324C304.439,237.539 304.562,237.729 304.723,237.894C303.859,239.28 302.383,239.992 301.226,241.056C300.785,241.462 300.197,241.478 299.7,241.002C299.696,240.997 299.736,241.05 299.736,241.05Z" style="fill:rgb(40,32,36);fill-rule:nonzero;"/>
        <path d="M326.059,230.671C327.687,229.672 329.33,229.307 331.009,230.563C330.818,230.786 330.629,231.01 330.439,231.234C329.186,230.851 327.93,230.963 326.672,231.202C326.468,231.025 326.263,230.849 326.059,230.671Z" style="fill:rgb(40,32,36);fill-rule:nonzero;"/>
        <path d="M316.919,223.479C317.595,222.114 318.773,221.235 319.941,220.346C320.108,220.519 320.274,220.692 320.441,220.865C319.617,222.081 318.499,223.01 317.424,223.983C317.256,223.815 317.088,223.646 316.919,223.479Z" style="fill:rgb(40,32,36);fill-rule:nonzero;"/>
        <path d="M314.282,237.872C313.118,237.589 311.949,238.493 310.786,237.86C312.594,236.633 313.312,236.636 314.282,237.872Z" style="fill:rgb(40,32,36);fill-rule:nonzero;"/>
        <path d="M311.478,241.271C312.413,241.268 313.348,241.264 314.282,241.261C314.679,242.443 313.67,242.528 313.053,242.559C312.302,242.597 311.264,242.59 311.478,241.271Z" style="fill:rgb(40,32,36);fill-rule:nonzero;"/>
        <path d="M310.827,237.822C311.705,238.756 310.836,239.697 310.837,240.635C309.611,239.578 309.61,239.242 310.827,237.822Z" style="fill:rgb(40,32,36);fill-rule:nonzero;"/>
        <path d="M307.832,227.299C306.899,228.063 305.956,228.099 305.001,227.34C305.208,227.122 305.415,226.904 305.621,226.686C306.146,226.688 306.672,226.69 307.196,226.692C307.408,226.894 307.62,227.097 307.832,227.299Z" style="fill:rgb(40,32,36);fill-rule:nonzero;"/>
        <path d="M300.07,234.832C299.432,233.881 299.427,232.942 300.123,232.017C300.353,232.216 300.585,232.415 300.815,232.614C300.818,233.153 300.82,233.692 300.822,234.231C300.571,234.431 300.32,234.631 300.07,234.832Z" style="fill:rgb(40,32,36);fill-rule:nonzero;"/>
        <path d="M297.914,239.908C296.722,240.293 295.859,239.716 295.814,238.502C296.71,238.678 297.412,239.144 297.914,239.908Z" style="fill:rgb(40,32,36);fill-rule:nonzero;"/>
        <path d="M308.51,223.835C309.17,224.769 309.524,225.665 308.198,226.352C308.079,226.248 307.96,226.145 307.839,226.043C307.843,225.522 307.847,225 307.851,224.479C308.07,224.265 308.29,224.05 308.51,223.835Z" style="fill:rgb(40,32,36);fill-rule:nonzero;"/>
        <path d="M315.615,239.245C314.631,239.284 314.052,238.928 314.24,237.828C315.47,237.553 315.356,238.58 315.615,239.245Z" style="fill:rgb(40,32,36);fill-rule:nonzero;"/>
        <path d="M321.108,204.458C320.599,204.403 320.131,204.312 320.357,203.607C320.836,203.69 321.348,203.743 321.108,204.458Z" style="fill:rgb(40,32,36);fill-rule:nonzero;"/>
        <path d="M308.198,226.352C308.076,226.667 307.953,226.983 307.832,227.298C307.62,227.097 307.408,226.894 307.196,226.692C307.283,226.349 307.488,226.124 307.839,226.043C307.96,226.145 308.079,226.248 308.198,226.352Z" style="fill:rgb(40,32,36);fill-rule:nonzero;"/>
        <path d="M312.123,228.241C312.19,227.851 312.416,227.621 312.811,227.563C312.956,227.76 313.1,227.956 313.244,228.152C313.007,228.387 312.77,228.62 312.533,228.854C312.396,228.649 312.26,228.445 312.123,228.241Z" style="fill:rgb(40,32,36);fill-rule:nonzero;"/>
        <path d="M311.474,228.95C311.523,228.561 311.731,228.317 312.123,228.241C312.26,228.445 312.396,228.649 312.533,228.854C312.371,229.019 312.209,229.184 312.047,229.348C311.856,229.215 311.665,229.083 311.474,228.95Z" style="fill:rgb(40,32,36);fill-rule:nonzero;"/>
        <path d="M325.283,231.406C325.542,231.161 325.8,230.917 326.059,230.672C326.263,230.849 326.468,231.025 326.672,231.202C326.568,231.574 326.302,231.752 325.94,231.818C325.722,231.681 325.502,231.543 325.283,231.406Z" style="fill:rgb(40,32,36);fill-rule:nonzero;"/>
        <path d="M324.812,231.909C324.97,231.741 325.127,231.573 325.283,231.406C325.502,231.543 325.722,231.681 325.94,231.818C325.882,232.179 325.702,232.445 325.345,232.568C325.167,232.349 324.989,232.129 324.812,231.909Z" style="fill:rgb(40,32,36);fill-rule:nonzero;"/>
        <path d="M304.356,237.324C304.672,237.069 305.018,236.744 305.271,237.336C305.311,237.427 304.917,237.703 304.723,237.894C304.562,237.729 304.439,237.539 304.356,237.324Z" style="fill:rgb(40,32,36);fill-rule:nonzero;"/>
        <path d="M298.599,240.607C298.336,240.645 298.156,241.042 297.788,240.674C297.421,240.307 297.817,240.126 297.854,239.863C298.28,239.934 298.528,240.182 298.599,240.607Z" style="fill:rgb(40,32,36);fill-rule:nonzero;"/>
        <path d="M310.792,240.586C311.507,240.358 311.581,240.769 311.52,241.315C310.626,241.723 310.655,241.208 310.792,240.586Z" style="fill:rgb(40,32,36);fill-rule:nonzero;"/>
        <path d="M314.222,241.314C314.254,240.582 314.628,240.354 315.308,240.58C315.041,240.965 315.112,241.851 314.222,241.314Z" style="fill:rgb(40,32,36);fill-rule:nonzero;"/>
        <path d="M283.877,211.773C282.543,210.342 281.906,208.691 282.879,206.875C283.932,204.908 285.962,204.242 287.969,204.003C289.435,203.828 290.362,205.017 290.998,206.299C291.701,207.717 292.486,209.088 291.466,210.715C289.711,213.511 287.361,214.045 284.364,212.267C284.604,212.089 284.844,211.911 285.083,211.732C285.602,211.938 286.106,212.268 286.642,212.326C288.36,212.515 291.07,210.28 290.941,208.857C290.859,207.948 288.951,205.378 288.225,205.198C287.035,204.904 284.601,206.106 283.877,207.289C283.003,208.717 283.966,209.849 284.417,211.069C284.237,211.304 284.057,211.539 283.877,211.773Z" style="fill:rgb(40,32,36);fill-rule:nonzero;"/>
        <path d="M281.839,196.096C280.241,193.593 280.201,191.738 281.708,189.977C283.348,188.061 287.06,187.123 289.128,188.2C289.805,188.553 290.33,189.195 290.925,189.705C290.671,189.903 290.417,190.101 290.163,190.299C289.681,190.008 289.2,189.714 288.716,189.427C286.623,188.188 284.75,188.918 283.076,190.231C281.387,191.557 281.314,192.648 282.368,195.374C282.191,195.615 282.016,195.855 281.839,196.096Z" style="fill:rgb(40,32,36);fill-rule:nonzero;"/>
        <path d="M291.117,196.307C287.628,199.219 286.157,199.265 282.333,196.579C282.57,196.395 282.808,196.211 283.044,196.027C285.608,197.875 288.088,197.754 290.487,195.712C290.697,195.911 290.907,196.109 291.117,196.307Z" style="fill:rgb(40,32,36);fill-rule:nonzero;"/>
        <path d="M286.241,223.512C287.355,222.524 288.483,221.569 289.845,223.147C291.078,224.578 290.948,225.513 289.312,227.359C289.148,227.153 288.984,226.947 288.821,226.741C289.484,225.987 290.012,225.257 289.262,224.206C288.459,223.081 287.615,223.555 286.73,223.99C286.567,223.831 286.404,223.671 286.241,223.512Z" style="fill:rgb(40,32,36);fill-rule:nonzero;"/>
        <path d="M290.925,189.705C293.062,192.637 293.093,193.726 291.117,196.307C290.907,196.109 290.697,195.911 290.487,195.712C291.928,193.815 291.345,192.039 290.163,190.299C290.417,190.101 290.671,189.903 290.925,189.705Z" style="fill:rgb(40,32,36);fill-rule:nonzero;"/>
        <path d="M286.034,226.475C285.021,225.412 285.04,224.42 286.241,223.512C286.404,223.671 286.567,223.831 286.73,223.99C286.175,224.618 286.262,225.325 286.478,226.048C286.331,226.191 286.184,226.333 286.034,226.475Z" style="fill:rgb(40,32,36);fill-rule:nonzero;"/>
        <path d="M289.312,227.359C287.957,228.036 286.902,227.602 286.034,226.475C286.184,226.333 286.331,226.191 286.478,226.048C287.287,226.183 287.934,226.868 288.821,226.741C288.984,226.947 289.148,227.153 289.312,227.359Z" style="fill:rgb(40,32,36);fill-rule:nonzero;"/>
        <path d="M284.364,212.267C284.202,212.103 284.04,211.938 283.877,211.773C284.057,211.539 284.237,211.304 284.417,211.069C284.776,211.152 284.998,211.374 285.083,211.732C284.844,211.911 284.604,212.089 284.364,212.267Z" style="fill:rgb(40,32,36);fill-rule:nonzero;"/>
        <path d="M282.333,196.579C282.169,196.417 282.004,196.256 281.839,196.095C282.016,195.855 282.191,195.615 282.368,195.374C282.727,195.454 282.958,195.666 283.044,196.027C282.808,196.211 282.57,196.395 282.333,196.579Z" style="fill:rgb(40,32,36);fill-rule:nonzero;"/>
        <path d="M335.555,278.472C337.569,277.048 339.835,276.245 342.135,277.319C345.632,278.952 346.169,284.231 343.277,286.826C341.007,288.863 337.836,289.166 335.883,287.531C333.152,285.245 332.863,282.174 335.075,278.94C335.255,279.189 335.435,279.438 335.613,279.688C335.345,280.306 334.965,280.898 334.826,281.544C334.281,284.072 335.94,286.902 338.201,287.417C340.374,287.911 343.322,286.037 343.997,283.732C344.771,281.09 342.6,278.233 339.822,278.135C338.527,278.089 337.381,278.419 336.274,279.021C336.035,278.838 335.795,278.655 335.555,278.472Z" style="fill:rgb(40,32,36);fill-rule:nonzero;"/>
        <path d="M295.143,261.106C295.054,259.783 295.302,259.533 297.225,259.012C296.923,260.192 296.785,261.119 298.086,262.063C300.447,263.773 302.128,266.211 303.92,268.499C302.119,267.905 301.021,266.516 299.827,265.141C298.479,263.589 297.473,261.548 295.143,261.106Z" style="fill:rgb(40,32,36);fill-rule:nonzero;"/>
        <path d="M322.41,270.598C324.801,269.086 326.162,269.183 327.826,270.981C329.591,272.89 329.608,273.744 327.934,276.122C327.746,275.941 327.559,275.76 327.371,275.579C328.39,274.064 327.879,272.824 326.737,271.631C325.553,270.395 324.294,270.08 322.819,271.069C322.684,270.911 322.548,270.754 322.41,270.598Z" style="fill:rgb(40,32,36);fill-rule:nonzero;"/>
        <path d="M327.934,276.122C325.174,278.126 323.713,278.14 321.861,276.177C320.24,274.458 320.222,273.805 321.723,271.277C321.875,271.409 322.029,271.541 322.183,271.671C321.319,273.299 321.524,274.735 322.986,275.91C324.54,277.159 325.966,276.446 327.371,275.579C327.559,275.76 327.746,275.941 327.934,276.122Z" style="fill:rgb(40,32,36);fill-rule:nonzero;"/>
        <path d="M312.578,262.749C313.527,263.816 313.701,264.979 312.593,265.958C311.362,267.044 310.147,266.606 309.096,265.524C309.287,265.337 309.478,265.15 309.668,264.964C312.076,265.788 312.175,265.718 311.979,263.307C312.179,263.121 312.379,262.935 312.578,262.749Z" style="fill:rgb(40,32,36);fill-rule:nonzero;"/>
        <path d="M309.096,265.524C307.838,264.376 307.898,262.981 309.019,262.004C310.275,260.905 311.488,261.979 312.578,262.749C312.379,262.935 312.179,263.121 311.979,263.307C311.374,262.918 310.877,262.055 310.015,262.587C309.034,263.191 309.536,264.131 309.668,264.964C309.478,265.15 309.287,265.337 309.096,265.524Z" style="fill:rgb(40,32,36);fill-rule:nonzero;"/>
        <path d="M335.075,278.94C335.235,278.784 335.395,278.628 335.556,278.472C335.795,278.655 336.035,278.838 336.274,279.021C336.193,279.381 335.972,279.602 335.613,279.688C335.435,279.438 335.255,279.189 335.075,278.94Z" style="fill:rgb(40,32,36);fill-rule:nonzero;"/>
        <path d="M321.723,271.277C321.756,270.852 321.983,270.623 322.411,270.598C322.548,270.754 322.684,270.911 322.819,271.069C322.607,271.27 322.395,271.471 322.183,271.671C322.029,271.541 321.875,271.409 321.723,271.277Z" style="fill:rgb(40,32,36);fill-rule:nonzero;"/>
        <path d="M231.319,263.088C233.978,263.156 237.651,260.099 237.615,257.847C237.572,255.26 234.542,252.527 231.566,252.396C229.146,252.288 227.018,254.841 226.889,258.003C226.78,260.676 228.826,263.023 231.319,263.088ZM231.531,251.231C235.446,250.782 238.752,255.305 238.659,257.975C238.564,260.715 234.443,264.376 231.299,264.436C228.322,264.492 225.419,261.275 225.533,258.046C225.672,254.09 228.217,251.199 231.531,251.231Z" style="fill:rgb(40,32,36);fill-rule:nonzero;"/>
        <path d="M247.993,260.171C250.023,260.222 251.347,258.958 251.436,256.883C251.522,254.843 249.993,252.919 248.299,252.937C246.1,252.96 244.337,254.55 244.234,256.604C244.148,258.314 246.051,260.12 247.993,260.171ZM252.395,257.141C252.195,260.115 250.451,261.563 247.414,261.279C244.979,261.052 242.958,258.791 243.124,256.481C243.309,253.896 245.472,251.809 247.725,252.037C251.143,252.383 252.606,253.983 252.395,257.141Z" style="fill:rgb(40,32,36);fill-rule:nonzero;"/>
        <path d="M263.203,255.844C264.036,255.71 264.753,255.305 264.671,254.392C264.572,253.291 263.621,253.084 262.694,253.002C261.719,252.916 261.144,253.423 261.271,254.354C261.407,255.361 262.206,255.785 263.203,255.844ZM262.662,251.99C264.61,251.946 265.727,252.755 265.78,254.249C265.834,255.743 264.584,256.981 263.013,256.99C261.448,257 260.191,255.852 260.122,254.347C260.049,252.789 260.868,252.03 262.662,251.99Z" style="fill:rgb(40,32,36);fill-rule:nonzero;"/>
        <path d="M243.356,291.3C242.59,291.436 242.107,291.905 242.187,292.675C242.242,293.207 242.527,293.829 243.256,293.708C243.986,293.587 244.498,293.07 244.494,292.327C244.491,291.708 243.966,291.404 243.356,291.3ZM243.127,295.153C241.959,295.204 241.018,294.072 240.997,292.594C240.977,291.118 241.79,290.192 243.181,290.108C244.536,290.026 245.531,290.965 245.583,292.371C245.63,293.689 244.388,295.098 243.127,295.153Z" style="fill:rgb(40,32,36);fill-rule:nonzero;"/>
        <path d="M267.143,269.001C267.125,268.565 266.73,268.245 266.301,268.263C265.539,268.294 265.101,268.751 265.219,269.588C265.288,270.085 265.559,270.482 266.041,270.503C266.969,270.542 267.027,269.794 267.143,269.001ZM267.962,269.241C267.892,271.073 267.308,271.743 265.874,271.615C264.398,271.483 264.02,270.354 264.006,269.207C263.99,267.904 264.854,267.083 266.163,267.089C267.478,267.095 268.306,267.736 267.962,269.241Z" style="fill:rgb(40,32,36);fill-rule:nonzero;"/>
        <path d="M251.899,284.002C251.789,283.541 251.565,283.177 251.071,283.05C250.163,282.817 249.838,283.419 249.688,284.113C249.58,284.607 249.938,285.078 250.372,285.125C251.132,285.207 251.504,284.542 251.899,284.002ZM250.846,281.625C252.005,281.698 253.067,282.768 252.958,283.753C252.792,285.242 251.603,286.519 250.361,286.43C248.903,286.326 248.519,285.29 248.536,284.039C248.555,282.644 249.632,281.549 250.846,281.625Z" style="fill:rgb(40,32,36);fill-rule:nonzero;"/>
        <path d="M256.888,276.089C256.325,274.933 257.246,274.861 257.939,274.746C258.764,274.608 259.613,274.862 259.941,275.63C260.471,276.865 259.926,278.023 259.105,278.935C258.275,279.856 257.242,279.592 256.432,278.854C255.521,278.026 255.15,277.033 256.142,275.951C256.471,275.592 256.685,275.861 256.927,276.049C256.952,276.599 256.868,277.184 257.036,277.686C257.173,278.091 257.668,278.262 258.15,278.147C258.818,277.989 258.937,277.459 258.983,276.888C259.028,276.328 258.704,276.104 258.206,276.082C257.768,276.064 257.327,276.085 256.888,276.089Z" style="fill:rgb(40,32,36);fill-rule:nonzero;"/>
        <path d="M273.792,262.098C273.346,262.222 272.963,262.425 272.875,262.914C272.77,263.501 273.184,263.721 273.642,263.77C274.122,263.822 274.482,263.594 274.549,263.051C274.619,262.468 274.157,262.321 273.792,262.098ZM275.871,263.097C275.422,264.104 274.957,265.149 273.563,265.125C272.385,265.104 271.6,264.1 271.727,262.822C271.844,261.636 272.511,260.982 273.687,260.952C274.737,260.926 275.975,262.169 275.871,263.097Z" style="fill:rgb(40,32,36);fill-rule:nonzero;"/>
        <path d="M242.866,206.804C244.488,205.199 246.323,204.118 248.722,204.45C250.781,204.735 252.124,205.826 253.089,207.722C254.906,211.292 251.284,218.751 246.29,218.207C243.526,217.906 242.041,216.411 240.75,214.357C239.427,212.252 239.873,210.278 241.336,208.431C241.614,208.079 241.937,207.763 242.239,207.43C242.426,207.63 242.614,207.83 242.801,208.03C242.583,208.425 242.363,208.82 242.146,209.216C240.182,212.81 242.578,216.727 246.646,216.761C249.177,216.783 250.311,215.117 251.199,213.272C252.151,211.292 252.648,209.155 251.141,207.136C250.572,206.375 249.765,206.042 248.831,205.834C246.736,205.368 245.096,206.313 243.462,207.364C243.264,207.177 243.064,206.991 242.866,206.804Z" style="fill:rgb(40,32,36);fill-rule:nonzero;"/>
        <path d="M255.89,228.195C254.25,225.397 254.361,224.071 256.385,222.317C258.397,220.574 260.213,220.476 262.157,222.003C264.382,223.752 264.765,225.585 263.43,228.09C263.243,227.88 263.057,227.67 262.87,227.46C263.191,225.136 262.566,223.625 260.944,222.679C259.601,221.895 258.427,222.193 257.252,223.071C255.605,224.301 255.613,225.795 256.42,227.464C256.243,227.708 256.066,227.952 255.89,228.195Z" style="fill:rgb(40,32,36);fill-rule:nonzero;"/>
        <path d="M269.874,237.896C268.703,238.294 268.576,237.357 268.614,236.697C268.683,235.516 269.318,234.615 270.49,234.145C271.706,233.657 272.442,234.354 273.02,235.201C273.741,236.26 273.431,237.9 272.51,238.541C271.587,239.183 270.854,239 269.855,237.877C270.302,237.856 270.754,237.874 271.193,237.806C271.975,237.687 272.436,237.222 272.23,236.415C272.096,235.885 271.822,235.25 271.174,235.237C270.369,235.221 270.019,235.834 269.929,236.567C269.875,237.006 269.89,237.453 269.874,237.896Z" style="fill:rgb(40,32,36);fill-rule:nonzero;"/>
        <path d="M262.158,229.353C260.457,230.712 258.76,230.786 257.066,229.337C257.308,229.151 257.549,228.965 257.789,228.78C259.035,229.297 260.285,229.376 261.542,228.821C261.747,228.998 261.953,229.176 262.158,229.353Z" style="fill:rgb(40,32,36);fill-rule:nonzero;"/>
        <path d="M242.239,207.43C242.448,207.222 242.657,207.013 242.866,206.804C243.064,206.991 243.264,207.177 243.462,207.364C243.387,207.73 243.165,207.951 242.801,208.03C242.614,207.83 242.426,207.63 242.239,207.43Z" style="fill:rgb(40,32,36);fill-rule:nonzero;"/>
        <path d="M256.618,228.901C256.376,228.666 256.133,228.431 255.89,228.195C256.066,227.952 256.243,227.708 256.42,227.464C256.781,227.57 256.979,227.82 257.052,228.18C256.907,228.42 256.763,228.661 256.618,228.901Z" style="fill:rgb(40,32,36);fill-rule:nonzero;"/>
        <path d="M263.43,228.09C263.187,228.349 262.943,228.607 262.7,228.866C262.56,228.647 262.419,228.429 262.278,228.21C262.337,227.851 262.51,227.582 262.87,227.46C263.057,227.67 263.243,227.88 263.43,228.09Z" style="fill:rgb(40,32,36);fill-rule:nonzero;"/>
        <path d="M257.066,229.337C256.866,229.246 256.716,229.1 256.618,228.901C256.763,228.661 256.907,228.42 257.052,228.18C257.413,228.237 257.678,228.415 257.789,228.78C257.549,228.965 257.308,229.151 257.066,229.337Z" style="fill:rgb(40,32,36);fill-rule:nonzero;"/>
        <path d="M262.7,228.866C262.52,229.028 262.339,229.191 262.157,229.353C261.953,229.176 261.747,228.998 261.542,228.821C261.646,228.448 261.922,228.28 262.278,228.21C262.419,228.429 262.56,228.647 262.7,228.866Z" style="fill:rgb(40,32,36);fill-rule:nonzero;"/>
        <path d="M340.066,252.837C339.773,251.918 339.032,251.73 338.235,251.753C337.381,251.776 336.736,252.126 336.768,253.135C336.798,254.111 337.414,254.563 338.276,254.457C339.175,254.347 339.95,253.901 340.066,252.837ZM338.638,250.628C340.252,250.638 341.43,251.655 341.353,252.971C341.267,254.438 339.645,255.775 338.034,255.709C336.458,255.645 335.319,254.391 335.413,252.824C335.497,251.426 336.687,250.615 338.638,250.628Z" style="fill:rgb(40,32,36);fill-rule:nonzero;"/>
        <path d="M354.219,249.597C355.849,251.014 355.173,252.445 354.172,253.799C353.061,255.302 350.754,256.195 349.388,255.8C348.79,255.627 348.42,255.26 348.177,254.713C347.401,252.972 347.103,251.278 348.648,249.759C348.82,249.929 348.993,250.099 349.166,250.27C349.13,250.49 349.09,250.71 349.059,250.932C348.862,252.337 348.264,253.93 350.129,254.648C351.065,255.01 353.18,253.387 353.679,252.003C353.849,251.529 353.643,250.919 353.608,250.372C353.812,250.114 354.016,249.855 354.219,249.597Z" style="fill:rgb(40,32,36);fill-rule:nonzero;"/>
        <path d="M326.905,250.356C328.377,251.22 329.129,252.332 328.026,253.967C327.064,255.394 325.853,255.463 323.751,254.289C323.938,254.1 324.127,253.909 324.314,253.72C325.295,254.445 326.243,254.312 326.946,253.396C327.668,252.454 326.856,251.777 326.304,251.104C326.504,250.854 326.704,250.605 326.905,250.356Z" style="fill:rgb(40,32,36);fill-rule:nonzero;"/>
        <path d="M311.298,253.781C310.285,252.938 309.942,251.856 310.936,250.923C312.14,249.794 313.529,249.612 314.703,251.134C314.473,251.337 314.243,251.539 314.014,251.741C311.69,250.832 311.498,250.967 311.731,253.332C311.588,253.482 311.443,253.633 311.298,253.781Z" style="fill:rgb(40,32,36);fill-rule:nonzero;"/>
        <path d="M348.648,249.759C350.651,248.141 351.513,248.116 354.219,249.597C354.016,249.855 353.812,250.114 353.608,250.372C352.149,249.38 350.662,249.642 349.166,250.27C348.993,250.099 348.82,249.929 348.648,249.759Z" style="fill:rgb(40,32,36);fill-rule:nonzero;"/>
        <path d="M314.703,251.134C315.342,252.074 315.423,253.086 314.518,253.801C313.529,254.583 312.362,254.915 311.298,253.781C311.443,253.633 311.588,253.482 311.731,253.332C312.979,253.501 314.117,253.511 314.014,251.741C314.243,251.539 314.473,251.337 314.703,251.134Z" style="fill:rgb(40,32,36);fill-rule:nonzero;"/>
        <path d="M324.107,250.481C325.014,249.859 325.942,249.731 326.905,250.356C326.704,250.605 326.504,250.854 326.304,251.104C325.735,251.06 325.166,251.017 324.598,250.973C324.435,250.809 324.27,250.645 324.107,250.481Z" style="fill:rgb(40,32,36);fill-rule:nonzero;"/>
        <path d="M323.751,254.289C322.728,253.344 322.583,252.424 323.833,251.547L323.766,251.482C323.948,252.229 324.132,252.974 324.314,253.72C324.127,253.909 323.938,254.1 323.751,254.289Z" style="fill:rgb(40,32,36);fill-rule:nonzero;"/>
        <path d="M323.833,251.547C323.728,251.141 323.83,250.788 324.108,250.481C324.27,250.645 324.435,250.809 324.598,250.973C324.452,251.358 324.186,251.546 323.766,251.482L323.833,251.547Z" style="fill:rgb(40,32,36);fill-rule:nonzero;"/>
        <path d="M316.939,295.114C318.293,296.357 319.086,297.819 318.07,299.579C317.259,300.984 315.843,301.352 314.281,301.065C312.046,300.656 310.667,298.951 311.06,297.124C311.556,294.82 313.197,293.91 315.807,294.494C315.505,295.882 313.986,294.99 313.338,295.827C312.697,296.655 311.985,297.411 312.54,298.546C313.087,299.663 314.953,300.263 316.111,299.645C317.103,299.114 317.56,298.319 317.21,297.108C317.028,296.48 315.851,295.922 316.939,295.114Z" style="fill:rgb(40,32,36);fill-rule:nonzero;"/>
        <path d="M308.662,289.018C309.702,288.972 310.714,288.766 310.802,287.461C310.87,286.433 310.364,285.79 309.217,285.811C308.101,285.83 307.173,286.193 306.989,287.379C306.811,288.531 307.668,288.882 308.662,289.018ZM308.671,284.743C310.651,284.679 312.215,285.964 312.148,287.601C312.098,288.843 310.573,290.215 309.103,290.342C307.367,290.492 305.856,289.302 305.792,287.733C305.716,285.903 306.774,284.804 308.671,284.743Z" style="fill:rgb(40,32,36);fill-rule:nonzero;"/>
        <path d="M305.001,275.771C306.691,277.087 305.764,278.412 304.84,279.515C304.025,280.488 302.824,280.416 301.754,279.766C300.426,278.959 300.054,277.692 300.365,276.258C300.709,274.671 301.788,274.449 303.983,275.425L304.043,275.367C303.396,275.532 302.71,275.61 302.112,275.883C301.211,276.293 301.179,277.048 301.592,277.862C302.092,278.849 302.917,279.096 303.84,278.621C304.831,278.112 304.691,277.153 304.507,276.243C304.672,276.086 304.836,275.929 305.001,275.771Z" style="fill:rgb(40,32,36);fill-rule:nonzero;"/>
        <path d="M300.263,268.215C300.839,271.016 300.361,271.494 297.444,271.035C297.653,270.814 297.861,270.594 298.07,270.373C299.159,270.41 299.696,269.893 299.654,268.795C299.857,268.602 300.06,268.408 300.263,268.215Z" style="fill:rgb(40,32,36);fill-rule:nonzero;"/>
        <path d="M297.444,271.035C295.914,270.108 295.866,269.047 297.155,267.863C297.331,268.027 297.506,268.19 297.682,268.354C297.149,269.155 297.546,269.776 298.07,270.373C297.861,270.594 297.653,270.814 297.444,271.035Z" style="fill:rgb(40,32,36);fill-rule:nonzero;"/>
        <path d="M297.155,267.863C297.449,267.075 298.12,266.666 298.852,266.744C299.395,266.803 299.551,267.404 299.208,267.951L299.266,267.866C298.637,267.702 298.151,268.003 297.682,268.354C297.506,268.19 297.331,268.027 297.155,267.863Z" style="fill:rgb(40,32,36);fill-rule:nonzero;"/>
        <path d="M323.145,307.45C322.496,307.637 322.276,307.384 322.426,306.752C322.67,306.716 322.843,306.373 323.178,306.698C323.516,307.024 323.171,307.205 323.145,307.45Z" style="fill:rgb(40,32,36);fill-rule:nonzero;"/>
        <path d="M303.983,275.425C304.382,275.367 304.728,275.462 305,275.772C304.836,275.929 304.672,276.086 304.507,276.243C304.143,276.063 303.774,275.883 304.043,275.367L303.983,275.425Z" style="fill:rgb(40,32,36);fill-rule:nonzero;"/>
        <path d="M299.208,267.951C299.735,267.336 299.963,267.921 300.263,268.215C300.06,268.408 299.857,268.602 299.654,268.795C299.299,268.58 299.17,268.271 299.266,267.866L299.208,267.951Z" style="fill:rgb(40,32,36);fill-rule:nonzero;"/>
        <path d="M263.063,197.408C263.129,196.173 261.635,194.492 260.358,194.366C259.332,194.265 258.29,195.531 258.232,196.948C258.169,198.535 259.092,199.586 260.605,199.648C261.963,199.704 262.988,198.769 263.063,197.408ZM260.157,193.423C262.317,193.435 264.426,195.428 264.374,197.41C264.326,199.292 262.521,201.05 260.637,201.052C258.627,201.053 256.927,199.455 256.868,197.511C256.795,195.095 258.15,193.412 260.157,193.423Z" style="fill:rgb(40,32,36);fill-rule:nonzero;"/>
        <path d="M269.866,215.414C271.272,213.759 272.366,213.632 273.819,214.956C275.176,216.192 275.251,218.241 273.983,219.444C272.814,220.554 270.919,220.486 269.735,219.293C268.463,218.009 268.529,216.664 269.93,215.342C270.06,216.311 269.599,217.385 270.448,218.23C271.298,219.075 272.294,219.19 273.167,218.447C274.158,217.604 273.854,216.596 272.997,215.823C272.084,215.001 270.988,214.954 269.866,215.414Z" style="fill:rgb(40,32,36);fill-rule:nonzero;"/>
        <path d="M276.979,225.213C276.062,225.436 275.573,226.1 275.595,226.912C275.625,228.041 276.492,228.35 277.498,228.34C278.487,228.331 278.983,227.831 278.833,226.855C278.675,225.824 277.908,225.398 276.979,225.213ZM273.976,229.017C275.178,228.577 274.305,227.673 274.399,226.999C274.663,225.118 276.198,223.899 277.927,224.286C279.585,224.657 280.583,226.357 280.063,227.926C279.551,229.469 277.936,230.073 276.133,229.501C275.426,229.277 274.951,227.922 273.94,228.985L273.976,229.017Z" style="fill:rgb(40,32,36);fill-rule:nonzero;"/>
        <path d="M267.8,205.104C269.685,205.542 270.179,206.208 269.821,207.828C269.418,209.656 267.692,210.798 266.063,210.303C264.765,209.908 263.873,209.083 263.71,207.704C263.514,206.031 264.198,204.856 265.894,204.389C266.337,205.372 265.309,205.725 265.021,206.396C264.439,207.756 265.096,208.57 266.227,209.065C267.293,209.532 268.312,208.712 268.703,207.47C269.055,206.354 267.905,205.958 267.8,205.104Z" style="fill:rgb(40,32,36);fill-rule:nonzero;"/>
        <path d="M267.884,205.13C267.299,205.209 266.898,205.016 266.789,204.39C267.252,204.491 267.97,204.217 267.884,205.13Z" style="fill:rgb(40,32,36);fill-rule:nonzero;"/>
        <path d="M232.261,231.866C232.706,232.498 232.102,232.875 231.911,233.355C231.152,235.27 231.682,236.143 233.699,236.754C234.688,237.053 235.214,236.652 235.67,235.962C236.169,235.206 236.046,234.481 235.414,233.821C234.719,233.096 233.486,233.079 233.038,232.017C235.472,231.952 237.02,232.897 237.201,234.638C237.357,236.136 236.718,237.323 235.357,237.945C233.921,238.602 231.539,237.607 230.64,236.115C229.708,234.567 230.111,233.506 232.261,231.866Z" style="fill:rgb(40,32,36);fill-rule:nonzero;"/>
        <path d="M245.935,237.647C245.875,236.219 244.838,235.725 243.731,235.553C242.565,235.372 242.273,236.401 242.175,237.264C242.045,238.394 242.515,239.195 243.817,239.243C244.982,239.286 245.726,238.816 245.935,237.647ZM241.023,237.185C241.208,235.246 242.609,234.087 244.468,234.337C246.104,234.558 247.413,236.026 247.345,237.566C247.268,239.316 245.368,240.814 243.528,240.573C241.828,240.351 240.849,239.026 241.023,237.185Z" style="fill:rgb(40,32,36);fill-rule:nonzero;"/>
        <path d="M252.804,241.983C252.553,242.138 252.272,242.519 252.018,242.076C251.129,240.537 251.339,238.679 252.456,237.809C253.501,236.994 255.331,237.091 256.535,238.023C257.747,238.961 258.15,240.186 257.609,241.604C257.127,242.86 255.212,243.479 253.563,242.957C253.177,242.834 252.294,242.895 252.806,241.987C253.345,241.654 253.902,241.894 254.455,241.93C255.428,241.994 256.397,241.792 256.622,240.748C256.884,239.533 256.002,238.92 254.959,238.539C253.502,238.007 252.907,238.359 252.717,240.002C252.642,240.651 252.769,241.323 252.804,241.983Z" style="fill:rgb(40,32,36);fill-rule:nonzero;"/>
        <path d="M266.557,242.625C267.52,243.831 267.537,244.562 266.545,245.194C265.607,245.793 264.598,245.763 263.687,245.16C262.663,244.482 262.622,243.537 263.204,242.526C263.237,242.469 263.372,242.43 263.445,242.447C263.55,242.471 263.64,242.554 263.736,242.611C264.072,243.251 263.942,244.249 264.947,244.382C266.268,244.559 265.941,243.143 266.557,242.625Z" style="fill:rgb(40,32,36);fill-rule:nonzero;"/>
        <path d="M265.836,241.976C265.466,241.976 265.097,241.977 264.727,241.977C265.096,241.654 265.465,240.652 265.836,241.976Z" style="fill:rgb(40,32,36);fill-rule:nonzero;"/>
        <path d="M264.807,241.935C264.581,242.391 264.349,242.838 263.705,242.649C263.634,241.734 264.264,241.902 264.807,241.935Z" style="fill:rgb(40,32,36);fill-rule:nonzero;"/>
        <path d="M266.503,242.62C265.803,242.862 265.665,242.52 265.775,241.92C266.445,241.708 266.877,241.746 266.503,242.62Z" style="fill:rgb(40,32,36);fill-rule:nonzero;"/>
        <path d="M282.479,250.622C282.301,250.752 282.118,250.854 281.977,250.997C281.761,251.216 281.821,251.39 282.121,251.461C282.467,251.542 282.734,251.439 282.744,251.055C282.748,250.913 282.573,250.767 282.479,250.622ZM287.336,250.533C287.143,250.484 286.944,250.381 286.76,250.402C286.508,250.43 286.424,250.636 286.512,250.879C286.607,251.143 286.795,251.206 287,251.016C287.14,250.885 287.226,250.696 287.336,250.533ZM290.794,252.838C290.661,252.723 290.526,252.509 290.397,252.512C290.05,252.521 289.842,252.78 289.863,253.116C289.87,253.229 290.124,253.417 290.259,253.411C290.58,253.397 290.851,253.248 290.794,252.838ZM295.979,249.313C296.391,249.206 296.576,248.941 296.482,248.61C296.341,248.11 295.863,248.13 295.457,248.11C295.163,248.096 294.729,248.151 294.799,248.497C294.92,249.097 295.48,249.251 295.979,249.313ZM295.581,252.215C296.078,252.052 296.297,251.678 296.303,251.228C296.312,250.562 295.89,250.321 295.263,250.288C294.871,250.267 294.579,250.442 294.621,250.77C294.699,251.385 294.968,251.945 295.581,252.215ZM285.117,257.792C285.975,256.017 285.975,256.017 285.328,254.43C284.847,255.486 284.746,256.383 285.117,257.792ZM282.263,253.704C281.947,253.688 281.615,253.608 281.321,253.681C281.144,253.725 281.229,254.073 281.441,254.041C281.742,253.996 282.018,253.777 282.301,253.637L282.256,253.541L282.263,253.704ZM288.66,258.909C287.841,257.74 287.063,257.632 286.099,258.833C285.277,259.858 284.222,260.436 282.959,259.412C282.579,259.104 282.435,258.741 282.849,258.339C283.023,257.964 283.227,257.6 283.36,257.212C283.429,257.016 283.419,256.599 283.361,256.583C282.627,256.379 283.133,256.958 283.096,257.123C283.004,257.524 283.259,257.994 282.86,258.35C281.628,258.62 282.065,257.61 281.987,257.116C281.828,256.111 281.412,255.686 280.39,256.076C279.375,256.462 278.348,256.615 277.674,255.54C276.983,254.438 277.853,253.647 278.385,252.803C278.559,252.528 278.638,252.194 278.849,251.666C278.449,251.347 277.968,251.036 277.579,250.635C276.052,249.059 276.062,248.333 278.046,247.412C279.72,246.634 280.241,245.768 279.598,243.996C278.896,242.064 280.067,240.787 281.515,239.719C281.996,239.363 282.711,239.036 283.067,239.427C284.903,241.443 287.682,240.081 289.674,241.386C290.501,241.928 291.137,241.426 291.874,241.146C293.89,240.382 295.323,240.902 295.725,242.87C296.01,244.271 296.504,245.117 297.823,245.565C298.095,245.657 298.387,246.016 298.464,246.306C299.014,248.378 297.671,250.181 297.559,252.195C297.489,253.458 296.171,253.804 294.978,253.962C294.428,254.035 293.904,254.302 293.369,254.48C293.117,254.271 292.866,254.06 292.615,253.85C292.816,253.394 293.621,252.93 293.045,252.488C292.597,252.146 291.88,252.615 291.849,253.262C291.792,254.445 292,255.674 290.091,254.931C289.486,254.696 289.182,254.953 289.338,255.809C289.465,256.507 288.847,257.296 289.288,258.08C289.079,258.356 288.869,258.633 288.66,258.909Z" style="fill:rgb(40,32,36);fill-rule:nonzero;"/>
        <path d="M293.369,254.48C292.803,255.731 293.89,257.353 292.486,258.416C292.257,258.21 292.026,258.003 291.796,257.796C292.512,256.572 291.615,255.014 292.615,253.85C292.866,254.06 293.117,254.271 293.369,254.48Z" style="fill:rgb(40,32,36);fill-rule:nonzero;"/>
        <path d="M291.81,259.104C290.979,260.207 290.053,260.147 289.065,259.328C289.346,259.136 289.625,258.944 289.904,258.753C290.328,258.649 290.752,258.546 291.176,258.442C291.387,258.663 291.599,258.884 291.81,259.104Z" style="fill:rgb(40,32,36);fill-rule:nonzero;"/>
        <path d="M289.065,259.328C288.887,259.229 288.752,259.09 288.661,258.909C288.869,258.633 289.079,258.356 289.288,258.08C289.493,258.304 289.699,258.528 289.904,258.753C289.625,258.944 289.346,259.136 289.065,259.328Z" style="fill:rgb(40,32,36);fill-rule:nonzero;"/>
        <path d="M292.486,258.416C292.411,258.793 292.184,259.021 291.81,259.104C291.599,258.884 291.387,258.663 291.176,258.442C291.383,258.227 291.589,258.011 291.796,257.796C292.026,258.003 292.257,258.21 292.486,258.416Z" style="fill:rgb(40,32,36);fill-rule:nonzero;"/>
    </g>
</svg>
