<?xml version="1.0" encoding="UTF-8" standalone="no"?>
<!DOCTYPE svg PUBLIC "-//W3C//DTD SVG 1.1//EN" "http://www.w3.org/Graphics/SVG/1.1/DTD/svg11.dtd">
<svg width="100%" height="100%" viewBox="0 0 105 68" version="1.1" xmlns="http://www.w3.org/2000/svg" xmlns:xlink="http://www.w3.org/1999/xlink" xml:space="preserve" xmlns:serif="http://www.serif.com/" style="fill-rule:evenodd;clip-rule:evenodd;stroke-linejoin:round;stroke-miterlimit:2;">
    <g transform="matrix(0.866168,-0.499752,0.499752,0.866168,-193.202,-128.332)">
        <path d="M109.311,276.372C108.602,277.051 107.976,276.595 107.362,276.212C106.641,275.762 105.968,275.226 105.221,274.828C104.519,274.454 104.051,274.92 103.818,275.526C103.577,276.151 104.053,276.284 104.551,276.43C105.99,276.85 107.128,277.731 108.145,278.842C106.552,278.169 104.919,277.778 103.335,277.25C103.022,277.146 102.667,277.314 102.463,277.706C102.217,278.177 102.542,278.429 102.806,278.579C105.088,279.882 107.391,281.148 109.628,282.393C111.243,280.757 109.329,279.164 110.084,277.728C111,278.006 111.988,278.435 112.107,276.863C112.177,275.932 112.222,274.997 112.281,274.067C112.63,274.16 112.979,274.253 113.327,274.345C114.007,276.227 113.375,277.929 112.642,279.635C111.967,281.203 111.298,282.78 111.161,284.515C110.948,287.185 111.932,289.482 114.117,290.832C116.299,292.18 118.819,292.102 121.086,290.664C121.899,290.148 122.627,289.468 123.31,288.78C124.254,287.828 125.063,286.737 126.032,285.813C127.876,284.058 129.55,283.677 132.446,284.404C130.634,285.026 129.035,285.306 127.764,286.24C127.148,286.692 126.14,287.19 127.111,288.237C126.857,290.168 123.715,288.819 123.852,291.634C125.773,292.822 127.943,294.166 130.116,295.508C130.418,295.695 130.768,295.871 131.062,295.569C131.452,295.168 131.443,294.709 131.026,294.308C129.841,293.169 128.649,292.037 127.46,290.902C129.048,291.361 130.514,291.934 131.529,293.219C131.835,293.605 132.224,293.489 132.426,293.233C132.699,292.89 133.166,292.415 132.689,291.969C132.168,291.481 131.511,291.142 130.927,290.718C130.222,290.204 128.893,290.19 129.317,288.749C130.407,289.296 131.496,289.842 132.714,290.452C132.887,288.512 131.348,288.671 130.682,287.968C130.707,287.756 130.746,287.355 130.754,287.356C133.127,287.55 135.148,285.408 137.718,286.43C138.624,286.79 139.89,286.438 140.355,285.151L140.268,285.184C143.046,286.354 145.948,285.665 147.479,283.473L147.388,283.504C149.033,285.497 150.482,283.974 152.11,283.452C150.911,281.541 149.35,280.099 148.94,277.455C150.669,279.153 151.151,281.135 152.536,282.478C154.055,283.951 156.471,284.023 158.49,282.496L158.386,282.512C160.321,283.53 162.32,284.134 164.586,283.6C164.307,282.526 164.07,281.615 163.833,280.703C164.063,280.666 164.292,280.622 164.52,280.57C165.384,282.436 166.042,284.364 168.851,284.005C171.017,283.728 171.455,283.479 170.742,281.371C169.913,278.919 168.375,276.847 166.902,274.746C166.197,273.739 165.103,272.877 165.271,270.647C168.244,275.209 171.752,278.64 172.147,283.726C175.25,283.625 175.25,283.625 176.209,280.401C177.381,280.98 176.252,282.646 177.522,283.178C180.258,281.274 180.471,280.727 179.322,277.813C178.15,274.839 176.895,271.896 175.697,268.933C174.86,266.862 173.762,264.935 172.29,263.271C167.879,258.287 164.339,252.67 160.462,247.293C156.323,241.555 151.407,236.563 144.809,233.651C140.08,231.564 135.15,230.133 129.953,229.557C125.443,229.057 120.823,228.637 116.529,227.295C109.661,225.148 102.869,226.407 96.041,226.725C93.49,226.844 92.941,227.805 92.87,230.981C94.917,230.744 96.774,229.382 98.911,229.948C97.393,231.575 94.727,230.563 93.084,232.711C94.104,233.415 93.292,235.5 95.432,235.652C95.285,237.138 95.402,238.517 96.356,239.811C96.886,240.528 97.267,241.244 98.264,241.268C98.297,241.493 98.353,241.711 98.432,241.925C98.439,244.667 99.625,246.282 101.86,246.793C104.757,247.457 107.782,247.58 111.333,248.884C107.424,249.265 104.479,247.762 101.316,247.842C102.826,252.6 102.147,252.544 107.367,253.222C107.965,253.299 108.558,253.416 109.153,253.515L109.291,253.839C107.416,254.61 105.56,253.479 103.427,253.579C104.159,256.201 104.82,258.567 105.521,261.076C111.173,259.324 115.176,262.97 119.645,265.075C114.916,264.513 111.053,260.246 105.843,261.922C106.179,263.837 106.179,263.837 107.618,264.986L107.605,264.896C106.711,267.482 106.711,267.482 111.365,270.115C110.5,270.729 109.531,269.463 108.708,270.305C108.378,271.87 110.328,273.105 109.403,274.781C108.333,274.642 107.742,272.698 106.108,274.085C107.215,274.875 108.263,275.623 109.311,276.372ZM133.639,288.115C135.141,291.336 133.882,293.721 132.516,296.069C131.763,297.364 130.789,297.648 129.474,296.714C127.874,295.576 126.125,294.661 124.672,293.296C123.461,292.159 122.267,291.801 120.375,292.427C114.924,294.229 110.642,291.413 109.796,285.597C109.558,283.953 108.87,283.139 107.536,282.655C105.546,281.933 103.831,280.729 102.004,279.716C100.639,278.958 100.383,278.074 101.224,276.722C102.685,274.37 104.38,272.381 107.494,272.074C107.198,270.086 106.159,268.519 105.616,266.787C104.879,264.44 103.979,262.124 103.489,259.727C102.413,254.464 100.279,249.676 97.547,245.104C95.275,241.299 93.276,237.361 91.792,233.169C90.077,228.325 91.823,225.555 96.926,225.116C99.988,224.853 103.051,224.579 106.113,224.313C108.458,224.107 110.803,224.208 113.069,224.807C119.62,226.538 126.333,227.303 133,228.364C145.275,230.318 154.933,236.491 162.043,246.661C165.7,251.893 169.216,257.224 173.44,262.037C175.157,263.994 176.418,266.234 177.342,268.677C178.343,271.321 179.161,274.079 180.514,276.537C182.894,280.861 180.02,285.057 175.203,285.207C171.025,285.337 166.858,285.588 162.687,285.271C157.377,284.865 152.15,285.071 146.951,286.445C142.792,287.545 138.486,287.921 133.639,288.115Z" style="fill:rgb(50,46,61);fill-rule:nonzero;"/>
        <path d="M112.977,230.913C116.111,230.108 119.069,231.135 121.878,232.163C125.382,233.445 128.918,234.248 132.613,234.485C135.371,234.662 137.863,235.526 140.194,237.052C143.565,239.259 146.997,241.38 150.474,243.416C152.871,244.82 154.815,246.607 156.205,249.007C158.123,252.318 160.496,255.218 163.331,257.835C166.984,261.207 169.036,265.778 171.568,269.973C171.602,270.027 171.313,270.276 171.173,270.435C169.546,269.075 168.548,267.229 167.564,265.432C166.135,262.819 164.428,260.41 162.265,258.426C159.427,255.82 157.253,252.753 155.216,249.546C153.882,247.447 152.158,245.8 150.046,244.432C146.543,242.163 142.991,239.987 139.403,237.859C137.462,236.708 135.442,235.929 133.22,235.713C129.063,235.311 124.98,234.617 121.051,233.125C118.865,232.295 116.56,231.941 114.233,231.717C113.741,231.669 112.915,231.92 112.977,230.913Z" style="fill:rgb(50,46,61);fill-rule:nonzero;"/>
        <path d="M143.755,252.251C140.164,247.297 134.264,246.921 129.19,244.906C129.162,244.699 129.118,244.496 129.054,244.296C134.704,245.804 140.933,246.152 144.42,251.982C144.189,252.048 143.967,252.138 143.755,252.251Z" style="fill:rgb(50,46,61);fill-rule:nonzero;"/>
        <path d="M113.965,253.16C114.907,252.697 115.89,252.892 116.803,253.146C120.624,254.205 124.261,255.813 128.106,256.853C125.469,257.311 123.006,256.539 120.794,255.512C118.624,254.505 116.435,254.049 114.144,253.738C114.083,253.545 114.023,253.353 113.965,253.16Z" style="fill:rgb(50,46,61);fill-rule:nonzero;"/>
        <path d="M137.379,262.729C141.285,265.615 144.521,269.162 147.467,272.99C147.563,273.115 147.431,273.417 147.357,274.032C144.355,269.759 139.789,267.269 137.48,262.726L137.379,262.729Z" style="fill:rgb(50,46,61);fill-rule:nonzero;"/>
        <path d="M115.231,272.021C121.131,273.857 126.153,277.112 130.526,281.419C125.367,278.384 120.463,274.937 115.231,272.021Z" style="fill:rgb(50,46,61);fill-rule:nonzero;"/>
        <path d="M118.462,248.877C122.628,247.612 126.623,248.659 130.575,250.111C126.523,250.145 122.609,248.657 118.462,248.877Z" style="fill:rgb(50,46,61);fill-rule:nonzero;"/>
        <path d="M135.352,241.685C139.981,242.399 143.737,244.771 146.981,248.111C143.186,245.816 139.48,243.349 135.352,241.685Z" style="fill:rgb(50,46,61);fill-rule:nonzero;"/>
        <path d="M151.288,261.651C149.231,258.154 147.226,254.615 143.756,252.251C143.967,252.138 144.189,252.048 144.42,251.982C148.175,254.139 150.346,257.535 151.84,261.462C151.657,261.526 151.473,261.59 151.288,261.651Z" style="fill:rgb(50,46,61);fill-rule:nonzero;"/>
        <path d="M122.601,270.768C125.26,269.84 127.446,269.992 128.341,273.162C128.729,274.53 130.455,275.205 130.59,277.005C129.563,276.281 128.784,275.551 128.282,274.585C127.113,272.333 125.646,270.543 122.601,270.768Z" style="fill:rgb(50,46,61);fill-rule:nonzero;"/>
        <path d="M148.528,266.046C146.646,263.363 144.765,260.681 142.883,257.998C145.499,260.171 148.042,262.391 148.528,266.046Z" style="fill:rgb(50,46,61);fill-rule:nonzero;"/>
        <path d="M122.911,261.619C118.725,261.413 115.032,259.464 111.127,258.212C115.22,258.175 118.857,260.166 122.783,260.843C122.826,261.102 122.868,261.36 122.911,261.619Z" style="fill:rgb(50,46,61);fill-rule:nonzero;"/>
        <path d="M153.066,263.965C154.885,266.035 156.712,268.098 158.517,270.179C159.368,271.158 160.405,272.021 160.691,273.387C160.471,273.438 160.256,273.504 160.046,273.587C158.224,271.493 156.4,269.401 154.582,267.306C153.726,266.319 152.667,265.464 152.455,264.055C152.66,264.036 152.864,264.006 153.066,263.965Z" style="fill:rgb(50,46,61);fill-rule:nonzero;"/>
        <path d="M163.792,268.146C162.012,265.178 159.858,262.574 157.899,259.832C160.936,261.87 162.899,264.683 163.792,268.146Z" style="fill:rgb(50,46,61);fill-rule:nonzero;"/>
        <path d="M104.719,240.815C107.758,240.77 110.714,241.158 113.447,242.839C110.554,242.389 107.662,241.94 104.77,241.49C104.763,241.264 104.746,241.039 104.719,240.815Z" style="fill:rgb(50,46,61);fill-rule:nonzero;"/>
        <path d="M98.087,235.638C101.234,234.757 104.24,235.028 107.088,236.587C104.088,236.271 101.088,235.955 98.087,235.638Z" style="fill:rgb(50,46,61);fill-rule:nonzero;"/>
        <path d="M123.113,244.731C120.375,245.148 117.842,244.337 114.512,243.509C116.641,242.494 117.86,243.586 119.131,243.636C120.46,243.688 121.782,243.943 123.107,244.109C123.103,244.316 123.105,244.524 123.113,244.731Z" style="fill:rgb(50,46,61);fill-rule:nonzero;"/>
        <path d="M134.904,273.512C136.099,275.226 137.704,276.488 139.402,277.665C140.531,278.448 141.846,279.115 142.117,281.612C139.689,278.069 135.476,277.523 134.188,273.726C134.427,273.654 134.666,273.583 134.904,273.512Z" style="fill:rgb(50,46,61);fill-rule:nonzero;"/>
        <path d="M134.209,251.877C135.826,252.231 137.851,251.982 138.92,254.373C137.044,253.379 135.627,252.628 134.209,251.877Z" style="fill:rgb(50,46,61);fill-rule:nonzero;"/>
        <path d="M158.49,282.496C156.682,280.897 155.316,278.973 154.4,276.719C155.845,278.565 158.246,279.727 158.386,282.512L158.49,282.496Z" style="fill:rgb(50,46,61);fill-rule:nonzero;"/>
        <path d="M125.496,261.085C129.388,260.422 131.416,263.583 134.225,265.16C131.275,264.223 128.973,261.742 125.622,261.844C125.58,261.59 125.538,261.337 125.496,261.085Z" style="fill:rgb(50,46,61);fill-rule:nonzero;"/>
        <path d="M140.241,273.283C141.861,275.148 143.976,276.615 144.845,279.097C142.76,277.54 140.916,275.76 139.5,273.563C139.747,273.47 139.994,273.377 140.241,273.283Z" style="fill:rgb(50,46,61);fill-rule:nonzero;"/>
        <path d="M122.718,238.269C120.678,237.749 118.638,237.229 116.599,236.709C118.873,235.963 120.821,236.603 122.674,237.685C122.694,237.879 122.708,238.074 122.718,238.269Z" style="fill:rgb(50,46,61);fill-rule:nonzero;"/>
        <path d="M139.5,273.563C137.56,272.394 136.273,270.711 135.569,268.569C135.809,268.509 136.049,268.447 136.29,268.386C137.47,270.129 138.754,271.788 140.241,273.284C139.994,273.377 139.747,273.47 139.5,273.563Z" style="fill:rgb(50,46,61);fill-rule:nonzero;"/>
        <path d="M132.227,269.899C130.993,267.731 128.475,267.034 126.907,265.235C129.297,266.183 131.764,267.014 132.843,269.698C132.639,269.768 132.433,269.835 132.227,269.899Z" style="fill:rgb(50,46,61);fill-rule:nonzero;"/>
        <path d="M139.478,283.754C137.33,283.168 136.551,280.96 134.913,279.773C137.015,280.401 138.548,281.688 139.385,283.777L139.478,283.754Z" style="fill:rgb(50,46,61);fill-rule:nonzero;"/>
        <path d="M148.009,249.465C150.256,249.829 150.781,252.219 152.603,253.154C150.202,252.996 149.515,250.774 148.009,249.465Z" style="fill:rgb(50,46,61);fill-rule:nonzero;"/>
        <path d="M108.036,230.468C109.775,229.897 111.421,230.388 113.064,230.91C111.369,231.873 110.257,231.775 108.036,230.468Z" style="fill:rgb(50,46,61);fill-rule:nonzero;"/>
        <path d="M109.267,265.146C111.386,264.866 113.11,265.689 114.629,267.085C112.725,266.71 110.788,266.422 109.251,265.06L109.267,265.146Z" style="fill:rgb(50,46,61);fill-rule:nonzero;"/>
        <path d="M172.869,273.159C174.898,273.88 174.985,275.815 175.552,277.45C173.64,276.656 173.479,274.767 172.869,273.159Z" style="fill:rgb(50,46,61);fill-rule:nonzero;"/>
        <path d="M160.691,273.387C162.065,274.482 162.817,275.953 163.241,277.621C163.013,277.637 162.789,277.676 162.568,277.739C161.728,276.354 160.887,274.97 160.046,273.586C160.256,273.504 160.471,273.438 160.691,273.387Z" style="fill:rgb(50,46,61);fill-rule:nonzero;"/>
        <path d="M104.77,241.49C103.562,241.839 102.343,242.051 101.085,241.792L101.071,241.896C100.789,241.297 101.173,241.064 101.641,241.016C102.663,240.911 103.693,240.878 104.719,240.815C104.746,241.039 104.763,241.264 104.77,241.49Z" style="fill:rgb(50,46,61);fill-rule:nonzero;"/>
        <path d="M163.833,280.703C163.04,279.873 162.993,278.726 162.569,277.738C162.789,277.676 163.013,277.637 163.241,277.621C164.117,278.409 164.112,279.579 164.52,280.57C164.292,280.622 164.063,280.666 163.833,280.703Z" style="fill:rgb(50,46,61);fill-rule:nonzero;"/>
        <path d="M148.911,277.817C147.961,276.381 147.564,275.546 147.713,273.676C148.645,275.146 149.055,275.977 148.911,277.817Z" style="fill:rgb(50,46,61);fill-rule:nonzero;"/>
        <path d="M150.389,269.765C149.198,268.699 149.011,267.721 149.018,266.354C150.208,267.173 150.456,268.123 150.389,269.765Z" style="fill:rgb(50,46,61);fill-rule:nonzero;"/>
        <path d="M171.134,270.348C172.575,270.795 173.249,271.713 172.915,273.25C171.821,272.59 171.15,271.67 171.134,270.348Z" style="fill:rgb(50,46,61);fill-rule:nonzero;"/>
        <path d="M126.417,244.508C125.341,244.975 124.219,244.732 123.113,244.73C123.105,244.524 123.103,244.316 123.107,244.109C124.146,243.65 125.216,243.77 126.289,243.943C126.329,244.132 126.372,244.32 126.417,244.508Z" style="fill:rgb(50,46,61);fill-rule:nonzero;"/>
        <path d="M118.453,269.981C119.861,269.291 120.671,269.642 121.625,270.088C120.442,271.068 119.718,270.184 118.453,269.981Z" style="fill:rgb(50,46,61);fill-rule:nonzero;"/>
        <path d="M130.78,287.96C130.636,288.781 129.675,288.32 129.356,288.868C128.606,288.566 127.529,289.548 127.024,288.275C128.235,287.693 129.403,286.576 130.78,287.96Z" style="fill:rgb(50,46,61);fill-rule:nonzero;"/>
        <path d="M133.484,241.176C132.168,241.278 131.332,240.797 130.45,239.732C131.782,239.825 132.68,240.173 133.484,241.176Z" style="fill:rgb(50,46,61);fill-rule:nonzero;"/>
        <path d="M153.125,274.555C151.728,274.216 151.542,273.424 151.473,272.519C152.624,272.551 152.609,273.548 153.125,274.555Z" style="fill:rgb(50,46,61);fill-rule:nonzero;"/>
        <path d="M109.153,253.515C109.968,252.957 110.9,253.269 111.775,253.158C111.827,253.371 111.89,253.58 111.963,253.786C111.081,254.201 110.191,254.283 109.291,253.839L109.153,253.515Z" style="fill:rgb(50,46,61);fill-rule:nonzero;"/>
        <path d="M101.085,241.792C100.225,242.304 99.334,242.238 98.432,241.925C98.353,241.711 98.297,241.493 98.265,241.267C99.173,241.595 100.456,240.254 101.071,241.895C101.071,241.896 101.085,241.792 101.085,241.792Z" style="fill:rgb(50,46,61);fill-rule:nonzero;"/>
        <path d="M98.784,229.963C99.688,229.444 100.608,229.38 101.548,229.861C100.668,230.996 99.742,230.927 98.784,229.963Z" style="fill:rgb(50,46,61);fill-rule:nonzero;"/>
        <path d="M121.505,264.669C122.41,264.373 123.296,264.274 124.334,264.952C123.421,265.731 122.521,265.465 121.653,265.376C121.609,265.139 121.56,264.903 121.505,264.669Z" style="fill:rgb(50,46,61);fill-rule:nonzero;"/>
        <path d="M132.843,269.698C133.337,270.381 133.875,271.044 133.9,272.229C132.625,271.808 132.461,270.826 132.227,269.899C132.433,269.835 132.639,269.768 132.843,269.698Z" style="fill:rgb(50,46,61);fill-rule:nonzero;"/>
        <path d="M151.84,261.462C152.248,262.297 152.655,263.132 153.064,263.966C152.864,264.006 152.66,264.036 152.455,264.055C151.696,263.434 151.315,262.628 151.288,261.651C151.473,261.59 151.657,261.526 151.84,261.462Z" style="fill:rgb(50,46,61);fill-rule:nonzero;"/>
        <path d="M164.024,270.52C164.021,270.181 163.914,269.67 164.047,269.233C164.158,268.868 164.594,268.854 164.762,269.263C164.939,269.693 164.998,270.173 165.108,270.631C164.885,270.607 164.663,270.585 164.024,270.52Z" style="fill:rgb(50,46,61);fill-rule:nonzero;"/>
        <path d="M110.083,237.18C109.805,236.574 109.716,236.381 109.628,236.188C110.086,236.083 110.544,235.901 111.003,235.896C111.363,235.892 111.637,236.233 111.277,236.541C110.918,236.846 110.432,237.001 110.083,237.18Z" style="fill:rgb(50,46,61);fill-rule:nonzero;"/>
        <path d="M122.674,237.685C123.738,237.268 124.437,237.873 125.151,238.538C124.219,239.231 123.523,238.294 122.718,238.269C122.708,238.074 122.694,237.879 122.674,237.685Z" style="fill:rgb(50,46,61);fill-rule:nonzero;"/>
        <path d="M114.088,236.438C113.537,236.679 112.984,236.922 112.451,236.476C112.187,236.255 112.259,236.01 112.572,235.964C113.032,235.895 113.499,235.857 113.963,235.857C114.004,235.857 114.045,236.23 114.088,236.438Z" style="fill:rgb(50,46,61);fill-rule:nonzero;"/>
        <path d="M116.874,249.399C116.76,249.424 116.638,249.489 116.535,249.466C115.951,249.334 114.929,250.036 114.889,249.035C114.869,248.557 115.995,248.503 116.68,248.726C116.732,248.954 116.797,249.178 116.874,249.399Z" style="fill:rgb(50,46,61);fill-rule:nonzero;"/>
        <path d="M151.472,271.697C151.126,271.641 150.779,271.668 150.731,271.561C150.543,271.145 150.326,270.673 150.37,270.248C150.395,270.007 150.912,269.89 151.08,270.357C151.23,270.775 151.332,271.212 151.472,271.697Z" style="fill:rgb(50,46,61);fill-rule:nonzero;"/>
        <path d="M111.775,253.158C112.505,253.06 113.235,252.765 113.965,253.16C114.023,253.353 114.083,253.545 114.144,253.738C113.42,253.89 112.698,254.129 111.963,253.786C111.89,253.58 111.827,253.371 111.775,253.158Z" style="fill:rgb(50,46,61);fill-rule:nonzero;"/>
        <path d="M133.585,284.113C133.878,284.097 134.125,284.012 134.305,284.087C134.712,284.256 135.213,284.475 134.938,285.048C134.827,285.279 134.496,285.186 134.305,284.956C134.079,284.685 133.846,284.418 133.585,284.113Z" style="fill:rgb(50,46,61);fill-rule:nonzero;"/>
        <path d="M112.207,273.808C112.158,273.701 112.08,273.598 112.066,273.486C111.998,272.942 111.513,272.078 112.146,271.933C113.005,271.735 112.957,272.712 113.069,273.33C112.781,273.489 112.494,273.648 112.207,273.808Z" style="fill:rgb(50,46,61);fill-rule:nonzero;"/>
        <path d="M157.199,258.849C156.573,259.085 156.316,258.563 155.975,258.271C155.88,258.188 155.886,257.787 155.939,257.766C156.505,257.537 156.83,257.974 157.158,258.304C157.256,258.403 157.19,258.666 157.199,258.849Z" style="fill:rgb(50,46,61);fill-rule:nonzero;"/>
        <path d="M140.355,285.151C139.718,284.902 138.907,284.762 139.478,283.754L139.385,283.777C139.979,284.058 140.514,284.376 140.268,285.184L140.355,285.151Z" style="fill:rgb(50,46,61);fill-rule:nonzero;"/>
        <path d="M107.618,264.986C108.241,264.276 108.755,264.701 109.267,265.146L109.251,265.06C108.611,265.943 108.116,265.338 107.605,264.897C107.605,264.896 107.618,264.986 107.618,264.986Z" style="fill:rgb(50,46,61);fill-rule:nonzero;"/>
        <path d="M143.151,282.884C142.952,282.449 141.894,282.059 142.754,281.598C143.308,281.301 143.695,282.09 143.662,282.769C143.492,282.809 143.321,282.847 143.151,282.884Z" style="fill:rgb(50,46,61);fill-rule:nonzero;"/>
        <path d="M108.565,257.598C109.108,257.27 109.629,257.335 110.072,257.755C110.284,257.957 110.216,258.249 109.988,258.261C109.561,258.283 109.129,258.214 108.699,258.182C108.657,257.986 108.612,257.792 108.565,257.598Z" style="fill:rgb(50,46,61);fill-rule:nonzero;"/>
        <path d="M124.56,261.692C123.992,262.069 123.451,261.861 122.911,261.619C122.868,261.36 122.826,261.102 122.783,260.843C123.333,260.871 123.884,260.899 124.435,260.929C124.476,261.184 124.518,261.438 124.56,261.692Z" style="fill:rgb(50,46,61);fill-rule:nonzero;"/>
        <path d="M113.023,249.172C112.491,249.586 112.002,249.548 111.589,249.006C111.542,248.943 111.595,248.698 111.646,248.682C112.247,248.495 112.735,248.64 113.041,249.228L113.023,249.172Z" style="fill:rgb(50,46,61);fill-rule:nonzero;"/>
        <path d="M101.45,229.866C102.081,229.4 102.653,229.583 103.204,230.021C102.538,230.882 101.944,230.934 101.45,229.866Z" style="fill:rgb(50,46,61);fill-rule:nonzero;"/>
        <path d="M126.289,243.943C126.832,243.967 127.375,243.99 127.917,244.015C127.949,244.218 127.995,244.417 128.054,244.612C127.481,245.024 126.944,244.836 126.417,244.508C126.372,244.32 126.329,244.132 126.289,243.943Z" style="fill:rgb(50,46,61);fill-rule:nonzero;"/>
        <path d="M103.097,230.018C103.731,229.494 104.3,229.717 104.848,230.172C104.182,231.056 103.596,231.027 103.097,230.018Z" style="fill:rgb(50,46,61);fill-rule:nonzero;"/>
        <path d="M104.743,230.168C105.379,229.619 105.944,229.878 106.494,230.321C105.827,231.222 105.244,231.165 104.743,230.168Z" style="fill:rgb(50,46,61);fill-rule:nonzero;"/>
        <path d="M106.389,230.318C107.026,229.75 107.593,229.992 108.138,230.472C107.473,231.355 106.889,231.323 106.389,230.318Z" style="fill:rgb(50,46,61);fill-rule:nonzero;"/>
        <path d="M115.637,236.333C115.482,236.42 115.323,236.51 115.163,236.6C115.136,236.487 115.05,236.316 115.094,236.272C115.218,236.145 115.396,236.068 115.552,235.972C115.578,236.084 115.605,236.198 115.637,236.333Z" style="fill:rgb(50,46,61);fill-rule:nonzero;"/>
        <path d="M129.19,244.906C128.812,244.808 128.434,244.71 128.054,244.612C127.995,244.417 127.949,244.218 127.917,244.015C128.345,243.915 128.726,244.002 129.054,244.296C129.118,244.496 129.162,244.699 129.19,244.906Z" style="fill:rgb(50,46,61);fill-rule:nonzero;"/>
        <path d="M108.614,236.15C108.646,236.286 108.673,236.398 108.7,236.512C108.517,236.495 108.324,236.506 108.156,236.447C108.097,236.427 108.098,236.236 108.071,236.123C108.254,236.132 108.438,236.141 108.614,236.15Z" style="fill:rgb(50,46,61);fill-rule:nonzero;"/>
        <path d="M175.514,277.357C175.874,277.672 176.112,278.013 175.769,278.486C175.148,278.23 174.492,277.983 175.514,277.357Z" style="fill:rgb(50,46,61);fill-rule:nonzero;"/>
        <path d="M175.744,278.377C176.27,278.653 176.417,279.016 176.001,279.507C175.497,279.226 175.028,278.937 175.744,278.377Z" style="fill:rgb(50,46,61);fill-rule:nonzero;"/>
        <path d="M175.975,279.392C176.564,279.651 176.652,280.029 176.242,280.524C175.64,280.268 175.556,279.889 175.975,279.392Z" style="fill:rgb(50,46,61);fill-rule:nonzero;"/>
        <path d="M97.121,235.446C97.039,235.49 96.958,235.533 96.876,235.576C96.825,235.437 96.775,235.298 96.724,235.158C96.839,235.139 96.954,235.12 97.069,235.1C97.086,235.215 97.104,235.331 97.121,235.446Z" style="fill:rgb(50,46,61);fill-rule:nonzero;"/>
        <path d="M116.68,248.726C116.956,248.51 117.393,248.356 117.543,248.636C117.895,249.291 117.264,249.281 116.873,249.399C116.797,249.178 116.732,248.954 116.68,248.726Z" style="fill:rgb(50,46,61);fill-rule:nonzero;"/>
        <path d="M129.13,257.013L129.369,257.063L129.264,257.219L129.13,257.013Z" style="fill:rgb(50,46,61);fill-rule:nonzero;"/>
        <path d="M137.48,262.726C137.524,262.547 137.569,262.367 137.614,262.188C138.027,262.564 137.655,262.624 137.388,262.729C137.379,262.729 137.48,262.726 137.48,262.726Z" style="fill:rgb(50,46,61);fill-rule:nonzero;"/>
        <path d="M113.041,249.228C113.096,248.902 113.214,248.605 113.613,248.757C113.74,248.806 113.893,249.174 113.851,249.217C113.585,249.488 113.292,249.375 113.023,249.172L113.041,249.228Z" style="fill:rgb(50,46,61);fill-rule:nonzero;"/>
        <path d="M153.887,275.785C153.737,275.769 153.548,275.775 153.385,275.715C153.325,275.692 153.323,275.512 153.295,275.402C153.474,275.423 153.662,275.418 153.827,275.477C153.878,275.495 153.869,275.684 153.887,275.785Z" style="fill:rgb(50,46,61);fill-rule:nonzero;"/>
        <path d="M135.01,266.821C134.875,266.854 134.762,266.88 134.648,266.906C134.665,266.724 134.654,266.531 134.713,266.363C134.733,266.305 134.924,266.305 135.038,266.278C135.028,266.461 135.019,266.645 135.01,266.821Z" style="fill:rgb(50,46,61);fill-rule:nonzero;"/>
        <path d="M124.435,260.929C124.788,260.981 125.142,261.033 125.496,261.085C125.538,261.337 125.58,261.59 125.622,261.844C125.268,261.794 124.914,261.744 124.56,261.692C124.518,261.438 124.476,261.184 124.435,260.929Z" style="fill:rgb(50,46,61);fill-rule:nonzero;"/>
        <path d="M135.569,268.569C135.362,268.24 134.853,267.831 135.531,267.582C136.137,267.36 136.131,268.019 136.29,268.386C136.049,268.447 135.809,268.509 135.569,268.569Z" style="fill:rgb(50,46,61);fill-rule:nonzero;"/>
        <path d="M125.525,265.298C125.389,265.329 125.276,265.356 125.163,265.383C125.18,265.2 125.169,265.008 125.228,264.839C125.248,264.78 125.439,264.781 125.552,264.754C125.542,264.938 125.534,265.121 125.525,265.298Z" style="fill:rgb(50,46,61);fill-rule:nonzero;"/>
        <path d="M121.653,265.376C121.26,265.38 120.667,265.667 120.611,265.037C120.547,264.32 121.132,264.629 121.505,264.669C121.56,264.903 121.609,265.139 121.653,265.376Z" style="fill:rgb(50,46,61);fill-rule:nonzero;"/>
        <path d="M134.188,273.726C133.963,273.417 133.413,273.054 134.078,272.76C134.657,272.505 134.691,273.181 134.904,273.512C134.666,273.583 134.427,273.654 134.188,273.726Z" style="fill:rgb(50,46,61);fill-rule:nonzero;"/>
        <path d="M145.329,280.342C145.297,280.206 145.271,280.093 145.244,279.98C145.427,279.997 145.619,279.986 145.787,280.045C145.846,280.065 145.846,280.256 145.872,280.369C145.689,280.359 145.506,280.351 145.329,280.342Z" style="fill:rgb(50,46,61);fill-rule:nonzero;"/>
        <path d="M108.699,258.182C108.239,258.249 107.645,258.396 107.694,257.688C107.715,257.384 108.241,257.423 108.565,257.598C108.612,257.792 108.657,257.986 108.699,258.182Z" style="fill:rgb(50,46,61);fill-rule:nonzero;"/>
        <path d="M146.621,281.267C146.604,281.449 146.615,281.642 146.556,281.81C146.535,281.868 146.345,281.868 146.231,281.895C146.248,281.712 146.238,281.52 146.296,281.352C146.316,281.293 146.507,281.293 146.621,281.267Z" style="fill:rgb(50,46,61);fill-rule:nonzero;"/>
        <path d="M106.171,257.663C106.317,257.583 106.476,257.495 106.634,257.408C106.661,257.52 106.747,257.688 106.705,257.731C106.581,257.857 106.406,257.932 106.25,258.026C106.226,257.914 106.202,257.801 106.171,257.663Z" style="fill:rgb(50,46,61);fill-rule:nonzero;"/>
        <path d="M147.479,283.473C147.088,283.441 146.838,283.262 146.89,282.84C146.899,282.769 147.128,282.643 147.192,282.673C147.579,282.858 147.572,283.167 147.388,283.504L147.479,283.473Z" style="fill:rgb(50,46,61);fill-rule:nonzero;"/>
        <path d="M143.662,282.769C143.917,283.016 144.12,283.479 143.852,283.605C143.182,283.919 143.19,283.326 143.151,282.884C143.321,282.847 143.492,282.809 143.662,282.769Z" style="fill:rgb(50,46,61);fill-rule:nonzero;"/>
        <path d="M113.069,273.33C113.376,273.612 113.452,273.953 113.327,274.345C112.979,274.253 112.63,274.16 112.28,274.066C112.278,274.064 112.208,273.806 112.208,273.807C112.494,273.648 112.781,273.489 113.069,273.33Z" style="fill:rgb(50,46,61);fill-rule:nonzero;"/>
        <path d="M109.624,275.796C109.057,275.543 108.775,275.224 109.37,274.701C109.626,274.816 109.986,274.646 110.111,275.127C110.247,275.647 109.793,275.585 109.624,275.796Z" style="fill:rgb(50,46,61);fill-rule:nonzero;"/>
        <path d="M109.186,276.391C109.328,276.166 109.47,275.942 109.611,275.718C109.865,275.831 110.239,275.593 110.362,276.112C110.485,276.631 110.045,276.589 109.869,276.804C109.641,276.666 109.414,276.528 109.186,276.391Z" style="fill:rgb(50,46,61);fill-rule:nonzero;"/>
        <path d="M110.103,277.834C109.561,277.574 109.331,277.241 109.847,276.734C110.103,276.85 110.482,276.614 110.605,277.139C110.728,277.664 110.281,277.617 110.103,277.834Z" style="fill:rgb(50,46,61);fill-rule:nonzero;"/>
    </g>
</svg>
