<?xml version="1.0" encoding="UTF-8" standalone="no"?>
<!DOCTYPE svg PUBLIC "-//W3C//DTD SVG 1.1//EN" "http://www.w3.org/Graphics/SVG/1.1/DTD/svg11.dtd">
<svg width="100%" height="100%" viewBox="0 0 154 163" version="1.1" xmlns="http://www.w3.org/2000/svg" xmlns:xlink="http://www.w3.org/1999/xlink" xml:space="preserve" xmlns:serif="http://www.serif.com/" style="fill-rule:evenodd;clip-rule:evenodd;stroke-linejoin:round;stroke-miterlimit:2;">
    <g transform="matrix(1,0,0,1,-40.9804,-44.8545)">
        <path d="M152.763,166.042C151.774,167.075 151.22,165.936 150.681,165.513C145.042,161.083 139.353,156.708 134.335,151.551C129.763,146.853 125.042,142.348 119.12,139.323C116.96,138.219 115.642,138.37 114.885,140.531C113.696,143.923 111.425,146.646 109.783,149.749C106.248,156.431 103.639,163.519 100.532,170.387C96.074,180.242 91.107,189.842 86.439,199.59C85.242,202.089 83.535,204.321 81.489,206.217C79.261,208.282 77.636,207.856 76.127,205.192C74.232,201.85 74.849,198.387 75.329,194.899C75.622,192.764 76.257,190.697 77.143,188.772C81.042,180.298 83.851,171.431 86.792,162.61C89.744,153.757 93.958,145.45 97.8,136.983C100.49,131.057 100.303,130.1 94.903,126.538C92.029,124.642 88.746,123.704 85.499,122.772C82.129,121.805 78.689,121.055 75.251,120.355C64.313,118.128 53.957,114.51 44.737,108.028C41.448,105.716 40.386,103.787 41.288,101.277C42.157,98.859 45.128,97.501 48.707,98.426C64.754,102.573 81.347,104.203 97.24,109.008C99.576,109.715 101.712,108.76 103.953,108.831C104.906,108.861 104.985,107.854 104.904,107.096C104.067,99.202 104.877,91.307 104.87,83.413C104.866,79.376 105.301,75.402 106.237,71.474C107.343,66.835 108.356,62.173 109.501,57.544C110.445,53.734 112.05,50.172 114.142,46.864C115.81,44.226 118.476,44.173 120.187,46.778C121.489,48.759 122.358,50.878 122.456,53.433C122.817,62.869 121.298,72.22 121.397,81.634C121.462,87.782 121.554,93.93 121.684,100.076C121.702,100.941 121.948,101.819 122.2,102.657C122.684,104.261 123.513,105.184 125.486,104.777C127.715,104.317 129.961,103.907 131.86,102.647C140.364,97.005 150.194,94.623 159.653,91.393C166.646,89.004 173.846,87.219 180.967,85.213C183.885,84.392 186.913,84.295 189.919,84.186C191.808,84.117 193.393,84.686 194.015,86.764C194.712,89.095 194.295,90.433 192.208,91.97C189.967,93.619 187.499,94.881 184.873,95.76C176.982,98.399 169.535,102.032 162.179,105.853C152.601,110.827 143.224,116.16 134.139,121.994C131.341,123.791 131.185,124.63 133.517,127.186C135.217,129.048 136.743,131.033 138.255,133.044C141.209,136.974 144.372,140.702 148.506,143.5C156.305,148.779 162.352,155.875 168.403,162.948C171.773,166.889 175.593,170.329 179.69,173.479C181.288,174.708 182.912,175.913 184.103,177.568C184.684,178.376 185.324,179.205 185.646,180.125C186.652,183.012 185.713,184.375 182.631,184.686C178.906,185.061 175.692,183.621 172.774,181.575C170.1,179.701 167.686,177.458 165.046,175.53C161.288,172.785 157.421,170.19 153.623,167.499C153.139,167.155 152.017,167.093 152.682,165.989C154.176,165.991 155.122,167.103 156.226,167.826C159.76,170.143 163.227,172.563 166.719,174.942L166.645,174.89C169.099,177.441 171.856,179.606 174.95,181.331C177.17,182.569 179.526,183.434 182.093,183.45C184.386,183.464 185.019,182.524 184.226,180.341C183.514,178.381 181.985,177.035 180.431,175.759C178.487,174.163 176.456,172.672 174.52,171.068C172.511,169.403 170.954,166.907 167.712,167.725C167.311,167.826 167.104,166.884 166.475,167.247C166.391,167.453 166.225,167.663 166.238,167.861C166.326,169.172 165.995,170.181 164.441,170.044C163.658,169.975 162.919,169.435 163.07,168.56C163.297,167.241 164.24,166.635 165.552,167.009C166.028,167.145 166.535,167.522 166.777,166.97C167.165,166.086 167.446,165.12 167.546,164.165C167.582,163.827 167.017,163.208 166.617,163.09C165.869,162.871 166.195,163.696 165.988,164.025C165.27,165.166 164.345,165.739 163.255,164.64C162.248,163.624 162.62,162.584 163.694,161.774C164.053,161.504 164.693,161.675 164.897,160.802C160.476,156.4 156.726,151.163 151.395,147.45C146.001,143.694 141.105,139.381 137.307,133.947C135.864,131.883 134.268,129.952 132.601,128.064C129.746,124.832 130.057,123.234 133.607,120.887C141.988,115.346 150.655,110.306 159.558,105.652C167.349,101.579 175.153,97.569 183.564,94.867C186.429,93.947 189.159,92.67 191.615,90.858C192.917,89.898 193.292,88.721 192.825,87.237C192.368,85.787 191.155,85.34 189.853,85.438C187.349,85.627 184.857,85.992 182.364,86.312C181.875,86.375 181.228,86.581 181.285,87.141C181.535,89.582 179.462,89.163 178.202,89.747C178.201,89.747 178.26,89.797 178.26,89.797C178.368,87.947 177.475,87.416 175.794,87.93C173.278,88.699 170.784,89.555 168.242,90.228C156.113,93.442 144.104,96.956 133.129,103.28C130.729,104.662 128.123,105.616 125.431,106.208C123.111,106.719 122.184,106.14 121.39,103.94C121.053,103.007 120.93,101.987 120.792,100.995C120.035,95.512 120.148,89.965 119.956,84.461C119.729,77.971 120.397,71.441 120.842,64.939C120.959,63.214 120.38,62.18 119.016,61.379C119.163,61.019 119.364,60.853 119.811,60.938C120.297,61.03 120.844,60.962 120.929,60.323C121.032,59.54 120.481,59.258 119.833,59.157C119.48,59.102 119.112,59.147 118.751,59.147C118.566,57.925 119.54,58.134 120.189,58.037C120.927,57.927 121.346,57.582 121.275,56.834C121.014,54.115 121.397,51.315 119.882,48.766C119.141,47.519 118.524,46.274 116.905,46.28C115.343,46.286 114.978,47.665 114.431,48.777C110.063,57.675 108.039,67.301 106.729,76.957C105.486,86.115 105.498,95.444 106.217,104.711C106.315,105.975 106.35,107.21 106.116,108.457C105.932,109.44 105.287,110.225 104.417,110.229C102.183,110.241 100.029,111.242 97.748,110.641C93.144,109.427 88.52,108.291 83.908,107.106C80.753,106.297 77.643,105.315 74.398,104.869C65.948,103.709 57.597,102.04 49.332,99.936C48.123,99.628 46.897,99.305 45.614,99.574C44.19,99.873 43.067,100.458 42.511,101.96C41.921,103.557 42.541,104.75 43.72,105.578C46.161,107.292 48.366,109.424 51.367,110.224L51.28,110.156C52.025,111.448 53.397,111.885 54.624,112.396C59.934,114.61 65.268,116.81 70.836,118.276C74.744,119.305 78.757,119.936 82.723,120.744C81.58,119.466 80.474,118.539 81.625,116.977C82.521,115.761 83.675,115.254 84.921,116.65C84.779,116.813 84.599,117.138 84.501,117.114C83.541,116.886 82.427,117.058 82.521,118.064C82.652,119.476 83.929,118.925 84.851,118.773C84.958,118.756 85.083,118.845 85.2,118.884C85.585,120.128 83.296,119.707 83.863,121.101C87.727,122.109 91.467,123.569 95.189,125.054C100.723,127.261 102.18,130.955 99.801,136.396C99.55,136.971 99.264,137.53 99.012,138.104C95.277,146.602 91.041,154.881 88.054,163.701C85.077,172.493 82.146,181.302 78.292,189.771C77.037,192.528 76.453,195.492 76.281,198.52C76.151,200.813 76.441,203.017 77.669,205.045C78.358,206.184 79.127,206.319 80.093,205.491C81.339,204.422 82.358,203.162 83.225,201.563C82.088,201.577 81.163,201.266 80.47,200.44C79.745,199.575 80.039,198.652 80.683,198.084C81.343,197.501 82.375,196.854 82.936,198.371C82.741,198.5 82.563,198.695 82.349,198.747C81.785,198.882 81.564,199.193 81.734,199.744C81.76,199.828 81.936,199.921 82.038,199.917C82.611,199.889 82.872,199.623 82.746,199.007C82.703,198.799 82.831,198.556 82.881,198.33C84.794,199.658 84.817,199.669 85.798,197.724C86.294,196.739 86.693,195.704 87.136,194.692L87.079,194.768C91.467,186.866 95.541,178.797 99.044,170.47C103.474,159.944 108.372,149.653 113.737,139.58C115.032,137.148 116.845,136.305 118.975,137.502C122.243,139.339 125.624,140.981 128.397,143.675C133.535,148.665 138.37,153.972 143.972,158.482C146.98,160.905 149.837,163.516 152.763,166.042Z" style="fill:rgb(40,32,36);fill-rule:nonzero;"/>
        <path d="M87.136,194.692C86.254,194.629 85.438,195.683 84.67,195.173C83.432,194.35 82.531,193.846 81.458,195.434C81.118,195.938 80.061,195.874 79.483,195.17C78.986,194.564 78.672,193.895 79.128,193.128C79.668,192.219 80.636,191.983 81.355,192.513C82.439,193.311 83.192,193.817 84.185,192.404C84.577,191.844 85.407,192.162 85.808,192.669C86.312,193.306 86.659,194.067 87.076,194.771C87.079,194.768 87.136,194.692 87.136,194.692Z" style="fill:rgb(40,32,36);fill-rule:nonzero;"/>
        <path d="M109.718,89.971C108.075,89.356 107.6,88.634 108.282,87.501C108.943,86.404 109.838,85.553 111.317,86.204C112.496,86.723 113.683,87.275 113.019,88.895C112.385,90.445 111.296,91.233 109.559,90.534C109.509,90.515 109.483,90.349 109.504,90.267C109.535,90.152 109.621,90.052 109.683,89.945C110.017,89.829 110.366,89.745 110.68,89.59C111.36,89.254 111.952,88.8 111.55,87.941C111.44,87.705 110.983,87.504 110.685,87.504C109.77,87.506 109.461,88.055 109.614,88.923C109.674,89.268 109.685,89.621 109.718,89.971Z" style="fill:rgb(40,32,36);fill-rule:nonzero;"/>
        <path d="M93.406,166.595C92.296,167.831 91.665,168.003 90.805,167.23C89.844,166.365 89.699,165.22 90.357,164.221C90.873,163.439 91.691,162.727 92.873,163.243C94.517,163.96 94.77,165.541 93.388,166.616C93.323,166.27 93.25,165.924 93.194,165.575C93.112,165.063 92.911,164.668 92.328,164.601C91.883,164.549 91.628,164.845 91.502,165.169C91.197,165.942 91.77,166.243 92.344,166.448C92.673,166.566 93.05,166.55 93.406,166.595Z" style="fill:rgb(40,32,36);fill-rule:nonzero;"/>
        <path d="M124.103,133.675C123.018,133.67 122.143,133.106 121.971,132.088C121.807,131.111 122.217,130.015 123.359,129.792C124.464,129.575 125.215,130.278 125.485,131.352C125.781,132.524 125.102,133.191 124.103,133.675Z" style="fill:rgb(40,32,36);fill-rule:nonzero;"/>
        <path d="M161.805,97.434C161.751,97.033 161.547,96.74 161.14,96.684C160.677,96.621 160.487,96.947 160.428,97.336C160.347,97.863 160.788,97.911 161.129,98.013C161.635,98.164 161.742,97.812 161.805,97.434ZM163.298,97.443C163.325,98.562 162.881,99.417 161.714,99.541C160.282,99.694 159.386,98.973 159.182,97.511C158.996,96.174 159.733,95.218 160.906,95.137C162.272,95.044 163.094,96.049 163.298,97.443Z" style="fill:rgb(40,32,36);fill-rule:nonzero;"/>
        <path d="M117.514,55.042C117.485,56.102 117.067,57.065 115.872,57.076C114.81,57.084 113.934,56.352 113.832,55.239C113.718,53.986 114.624,53.507 115.746,53.47C116.764,53.436 117.386,53.94 117.514,55.042Z" style="fill:rgb(40,32,36);fill-rule:nonzero;"/>
        <path d="M169.786,96.853C168.537,96.988 167.729,96.393 167.531,95.329C167.353,94.375 168.098,93.693 168.934,93.363C169.97,92.955 170.667,93.653 170.92,94.5C171.227,95.528 170.797,96.412 169.786,96.853Z" style="fill:rgb(40,32,36);fill-rule:nonzero;"/>
        <path d="M93.24,158.279C94.587,158.198 95.119,158.947 95.198,160.075C95.259,160.951 94.733,161.581 93.895,161.565C92.878,161.547 91.846,161.155 91.708,159.967C91.585,158.923 92.383,158.47 93.24,158.279Z" style="fill:rgb(40,32,36);fill-rule:nonzero;"/>
        <path d="M150.07,157.2C151.751,157.265 151.165,158.434 150.933,159.221C150.711,159.975 149.99,160.352 149.163,160.333C148.172,160.312 147.443,159.809 147.264,158.854C147.036,157.647 147.422,156.535 148.656,156.116C149.437,155.851 150.362,155.945 150.137,157.255C149.777,157.312 149.368,157.28 149.069,157.447C148.654,157.679 148.289,158.109 148.76,158.574C149.227,159.035 149.69,158.679 149.933,158.275C150.104,157.991 150.033,157.563 150.07,157.2Z" style="fill:rgb(40,32,36);fill-rule:nonzero;"/>
        <path d="M117.513,113.45C117.22,113.052 116.935,112.57 116.347,112.761C115.666,112.983 115.372,113.506 115.683,114.183C115.913,114.686 116.415,114.857 116.91,114.612C117.346,114.396 117.674,114.022 117.513,113.45ZM116.664,115.886C115.589,115.987 114.523,115.73 114.317,114.305C114.12,112.942 114.639,111.804 115.992,111.328C117.074,110.946 118.768,112.383 118.889,113.651C118.994,114.756 118.157,115.652 116.664,115.886Z" style="fill:rgb(40,32,36);fill-rule:nonzero;"/>
        <path d="M166.719,174.942C167.495,174.188 166.178,173.151 167.143,172.323C167.913,171.663 168.62,171.42 169.519,171.828C170.296,172.18 170.621,172.819 170.463,173.659C170.291,174.577 169.551,174.719 168.786,174.86C168.069,174.992 167.349,174.264 166.647,174.891C166.645,174.89 166.719,174.942 166.719,174.942Z" style="fill:rgb(40,32,36);fill-rule:nonzero;"/>
        <path d="M154.781,163.553C153.513,163.751 152.807,162.999 152.591,162.02C152.382,161.072 152.609,159.987 153.853,159.778C154.997,159.584 155.721,160.264 156.004,161.315C156.302,162.421 155.858,163.208 154.781,163.553Z" style="fill:rgb(40,32,36);fill-rule:nonzero;"/>
        <path d="M178.335,180.863C177.481,180.998 176.84,180.555 176.708,179.79C176.529,178.745 177.056,177.778 178.04,177.443C179.015,177.112 179.729,177.921 179.947,178.745C180.265,179.947 179.244,180.408 178.335,180.863Z" style="fill:rgb(40,32,36);fill-rule:nonzero;"/>
        <path d="M114.808,82.61C114.782,82.154 114.456,81.998 114.087,81.918C113.605,81.815 113.436,82.138 113.415,82.524C113.391,82.98 113.746,83.137 114.119,83.206C114.577,83.29 114.751,83.005 114.808,82.61ZM115.971,82.499C116.112,83.438 115.685,84.117 114.711,84.356C113.559,84.64 111.917,83.587 111.924,82.559C111.933,81.43 112.668,80.639 113.677,80.476C115.019,80.258 115.603,81.286 115.971,82.499Z" style="fill:rgb(40,32,36);fill-rule:nonzero;"/>
        <path d="M98.538,123.991C97.478,123.977 96.814,123.362 96.68,122.478C96.543,121.583 97.036,120.663 97.995,120.567C99.018,120.466 99.989,120.936 100.025,122.188C100.054,123.164 99.433,123.748 98.538,123.991Z" style="fill:rgb(40,32,36);fill-rule:nonzero;"/>
        <path d="M180.944,90.274C181.989,90.407 182.592,90.98 182.586,91.996C182.581,92.938 182.18,93.751 181.134,93.882C180.095,94.013 179.438,93.421 179.352,92.41C179.255,91.278 179.793,90.501 180.944,90.274Z" style="fill:rgb(40,32,36);fill-rule:nonzero;"/>
        <path d="M157.078,104.451C155.816,104.204 155.494,103.299 155.405,102.238C155.33,101.346 155.756,100.736 156.639,100.702C157.861,100.654 158.46,101.438 158.512,102.581C158.557,103.572 158.019,104.211 157.078,104.451Z" style="fill:rgb(40,32,36);fill-rule:nonzero;"/>
        <path d="M94.195,173.273C95.645,173.192 95.966,173.973 95.399,175.101C94.774,176.344 93.639,176.5 92.532,175.813C91.811,175.366 91.039,174.677 91.661,173.65C92.353,172.506 93.225,172.042 94.263,173.331C94.061,173.462 93.87,173.621 93.652,173.715C93.299,173.867 92.914,174.009 93.095,174.48C93.153,174.632 93.472,174.768 93.671,174.766C94.264,174.76 94.067,174.318 94.067,173.969C94.066,173.737 94.149,173.505 94.195,173.273Z" style="fill:rgb(40,32,36);fill-rule:nonzero;"/>
        <path d="M102.281,154.424C102.155,155.636 101.71,156.452 100.511,156.503C99.681,156.539 99.088,156.001 98.946,155.249C98.701,153.955 99.67,153.592 100.678,153.407C101.565,153.244 101.943,153.879 102.281,154.424Z" style="fill:rgb(40,32,36);fill-rule:nonzero;"/>
        <path d="M99.116,164.201C99.024,165.178 98.425,165.851 97.486,165.834C96.569,165.817 95.897,165.182 95.915,164.147C95.931,163.173 96.397,162.4 97.438,162.489C98.332,162.565 98.984,163.178 99.116,164.201Z" style="fill:rgb(40,32,36);fill-rule:nonzero;"/>
        <path d="M108.95,139.484C108.768,140.435 108.141,140.759 107.312,140.655C106.447,140.548 105.973,139.956 106.057,139.103C106.147,138.174 106.887,137.916 107.681,137.987C108.557,138.066 108.975,138.639 108.95,139.484Z" style="fill:rgb(40,32,36);fill-rule:nonzero;"/>
        <path d="M129.992,130.857C130.042,132.038 129.494,132.618 128.466,132.669C127.383,132.722 126.908,132.008 126.827,131.044C126.74,130.002 127.267,129.378 128.336,129.366C129.38,129.354 129.907,129.956 129.992,130.857Z" style="fill:rgb(40,32,36);fill-rule:nonzero;"/>
        <path d="M145.889,146.638C145.84,147.732 145.312,148.319 144.312,148.332C143.365,148.343 142.624,147.922 142.613,146.862C142.603,145.868 143.261,145.239 144.176,145.179C145.129,145.117 145.68,145.798 145.889,146.638Z" style="fill:rgb(40,32,36);fill-rule:nonzero;"/>
        <path d="M85.772,185.08C87.007,183.925 87.712,183.816 88.351,184.774C89.141,185.958 88.497,186.914 87.613,187.641C86.826,188.289 85.899,188.14 85.429,187.221C85.065,186.511 84.216,185.49 85.812,185.028C85.943,185.347 86.06,185.673 86.21,185.983C86.389,186.354 86.788,186.487 87.042,186.25C87.466,185.852 87.343,185.388 86.793,185.181C86.484,185.064 86.115,185.108 85.772,185.08Z" style="fill:rgb(40,32,36);fill-rule:nonzero;"/>
        <path d="M146.885,101.105C146.902,102.411 146.352,103.098 145.2,103.236C144.297,103.343 143.849,102.846 143.756,101.994C143.638,100.914 143.865,100.019 145.137,99.846C146.189,99.702 146.685,100.304 146.885,101.105Z" style="fill:rgb(40,32,36);fill-rule:nonzero;"/>
        <path d="M130.869,114.041C130.748,114.867 130.368,115.499 129.509,115.556C128.496,115.624 127.795,115.057 127.837,114.043C127.871,113.25 128.503,112.695 129.349,112.725C130.151,112.753 130.714,113.209 130.869,114.041Z" style="fill:rgb(40,32,36);fill-rule:nonzero;"/>
        <path d="M188.406,88.257C188.167,89.146 187.813,90.036 186.771,89.965C185.964,89.911 185.495,89.21 185.554,88.361C185.631,87.268 186.356,86.88 187.355,86.998C188.057,87.082 188.418,87.543 188.406,88.257Z" style="fill:rgb(40,32,36);fill-rule:nonzero;"/>
        <path d="M63.847,107.339C63.918,108.479 63.262,108.983 62.32,109.088C61.499,109.179 60.93,108.762 60.788,107.878C60.619,106.819 61.2,106.172 62.099,105.995C63.066,105.805 63.712,106.362 63.847,107.339Z" style="fill:rgb(40,32,36);fill-rule:nonzero;"/>
        <path d="M153.941,158.438C152.872,158.486 152.228,157.98 152.205,156.944C152.183,155.938 153.039,155.823 153.776,155.782C154.61,155.736 155.213,156.118 155.293,157.032C155.38,158.015 154.71,158.29 153.941,158.438Z" style="fill:rgb(40,32,36);fill-rule:nonzero;"/>
        <path d="M102.162,113.687C102.226,114.475 102.187,115.227 101.237,115.465C100.356,115.687 99.625,115.2 99.441,114.484C99.224,113.638 99.472,112.702 100.596,112.486C101.536,112.305 101.968,112.856 102.162,113.687Z" style="fill:rgb(40,32,36);fill-rule:nonzero;"/>
        <path d="M53.208,108.497C53.079,108.301 52.975,107.962 52.818,107.936C52.418,107.87 52.104,108.126 52.108,108.546C52.11,108.734 52.321,109.044 52.485,109.081C52.892,109.171 53.154,108.927 53.208,108.497ZM51.368,110.224C51.223,109.757 51.01,109.298 50.945,108.82C50.774,107.548 51.309,106.498 52.593,106.453C53.951,106.405 54.306,107.587 54.383,108.771C54.484,110.322 53.328,110.124 52.382,110.191C52.017,110.217 51.647,110.17 51.279,110.156C51.28,110.156 51.367,110.224 51.368,110.224Z" style="fill:rgb(40,32,36);fill-rule:nonzero;"/>
        <path d="M117.638,87.485C117.53,88.205 117.171,88.839 116.554,88.902C115.343,89.024 114.769,88.22 114.725,87.088C114.697,86.377 115.161,85.894 115.861,85.92C116.847,85.958 117.319,86.695 117.638,87.485Z" style="fill:rgb(40,32,36);fill-rule:nonzero;"/>
        <path d="M150.233,149.611C150.155,150.455 149.829,151.127 148.924,151.046C147.975,150.961 147.41,150.377 147.46,149.339C147.495,148.625 147.854,148.241 148.563,148.177C149.636,148.082 150.089,148.687 150.233,149.611Z" style="fill:rgb(40,32,36);fill-rule:nonzero;"/>
        <path d="M113.554,119.702C113.492,120.599 113.198,121.396 112.087,121.328C111.5,121.292 110.869,121.035 110.701,120.34C110.482,119.436 111.499,118.342 112.448,118.436C113.173,118.507 113.475,118.988 113.554,119.702Z" style="fill:rgb(40,32,36);fill-rule:nonzero;"/>
        <path d="M138.432,114.21C137.5,115.145 136.338,115.791 135.224,114.859C134.263,114.055 133.886,112.83 135.153,111.773C135.384,111.954 135.615,112.135 135.846,112.316C135.049,114.525 136.351,114.046 137.574,113.665C137.86,113.847 138.146,114.028 138.432,114.21Z" style="fill:rgb(40,32,36);fill-rule:nonzero;"/>
        <path d="M120.93,111.017C121.017,110.931 121.091,110.822 121.193,110.762C122.384,110.061 123.501,109.99 124.414,111.211C124.73,111.635 124.764,112.189 124.502,112.6C123.691,113.873 122.585,113.952 121.35,113.216C121.551,112.97 121.751,112.724 121.953,112.478C122.41,112.408 123.145,112.522 123.108,111.904C123.047,110.862 122.24,111.43 121.705,111.46C121.446,111.313 121.188,111.165 120.93,111.017Z" style="fill:rgb(40,32,36);fill-rule:nonzero;"/>
        <path d="M127.781,135.433C129.009,136.269 128.744,137.312 127.998,138.217C127.259,139.114 126.24,138.909 125.348,138.379C124.121,137.65 124.157,136.684 124.972,135.641C125.195,135.824 125.418,136.008 125.642,136.191C125.401,137.111 125.929,137.681 126.699,137.591C127.468,137.501 127.863,136.838 127.359,136.004C127.5,135.813 127.64,135.623 127.781,135.433Z" style="fill:rgb(40,32,36);fill-rule:nonzero;"/>
        <path d="M99.474,145.429C100.578,146.189 101.415,147.136 100.385,148.425C99.384,149.678 98.282,149.325 97.348,148.193C97.608,147.945 97.869,147.697 98.129,147.45C99.358,147.822 99.421,147.268 99.014,146.337C99.167,146.035 99.32,145.732 99.474,145.429Z" style="fill:rgb(40,32,36);fill-rule:nonzero;"/>
        <path d="M114.739,103.362C115.017,103.14 115.263,102.829 115.579,102.711C116.587,102.338 117.5,102.474 118.078,103.491C118.486,104.212 118.308,104.947 117.775,105.488C116.973,106.303 116.085,106.303 115.263,105.443C115.393,105.264 115.525,105.085 115.658,104.907C115.993,104.73 116.702,104.978 116.533,104.227C116.399,103.631 116.016,104.174 115.754,104.127C115.416,103.872 115.077,103.617 114.739,103.362Z" style="fill:rgb(40,32,36);fill-rule:nonzero;"/>
        <path d="M95.261,117.957C94.399,119.056 93.422,119.129 92.398,118.218C91.665,117.565 91.428,116.715 91.981,115.872C92.669,114.82 93.591,114.331 94.779,115.225C94.633,115.416 94.488,115.605 94.342,115.796C93.647,115.763 92.942,116.036 92.99,116.723C93.057,117.682 93.873,117.718 94.659,117.507C94.858,117.66 95.058,117.81 95.261,117.957Z" style="fill:rgb(40,32,36);fill-rule:nonzero;"/>
        <path d="M143.544,108.028C144.646,108.646 145.122,109.454 144.542,110.736C143.978,111.987 143.276,112.831 141.756,112.245C141.934,111.996 142.111,111.748 142.288,111.499C143.458,110.889 143.693,110.011 143.04,108.879C143.208,108.595 143.376,108.312 143.544,108.028Z" style="fill:rgb(40,32,36);fill-rule:nonzero;"/>
        <path d="M174.73,90.585C175.675,89.29 177.082,90.054 178.26,89.797C178.26,89.797 178.201,89.747 178.202,89.747C178.082,90.941 178.807,92.321 177.432,93.239C177.177,93.038 176.922,92.838 176.667,92.637C177.01,91.588 176.972,90.816 175.526,91.069C175.26,90.908 174.995,90.747 174.73,90.585Z" style="fill:rgb(40,32,36);fill-rule:nonzero;"/>
        <path d="M107.334,135.444C106.944,136.761 105.984,137.196 104.832,136.673C103.44,136.044 103.409,134.895 104.172,133.677C104.384,133.85 104.595,134.023 104.807,134.196C104.699,136.124 105.614,135.756 106.688,135.035C106.903,135.171 107.119,135.308 107.334,135.444Z" style="fill:rgb(40,32,36);fill-rule:nonzero;"/>
        <path d="M114.068,127.861C115.096,129.255 114.24,130.173 113.232,131.005C112.198,131.859 111.401,131.142 110.61,130.522C110.792,130.297 110.974,130.071 111.155,129.846C112.474,130.266 113.369,129.956 113.567,128.446C113.734,128.251 113.901,128.056 114.068,127.861Z" style="fill:rgb(40,32,36);fill-rule:nonzero;"/>
        <path d="M153.383,98.755C152.675,98.71 152.505,98.14 152.402,97.537C152.301,96.942 152.666,96.637 153.179,96.556C153.847,96.451 154.425,96.7 154.424,97.443C154.423,98.034 154.183,98.625 153.383,98.755Z" style="fill:rgb(40,32,36);fill-rule:nonzero;"/>
        <path d="M66.897,115.548C64.489,114.299 64.489,114.299 65.647,111.831C65.863,112.009 66.08,112.188 66.296,112.366C65.939,113.46 66.454,114.199 67.291,114.806C67.16,115.053 67.028,115.301 66.897,115.548Z" style="fill:rgb(40,32,36);fill-rule:nonzero;"/>
        <path d="M68.502,111.585C70.098,114.49 69.903,114.972 66.897,115.548C67.028,115.301 67.16,115.053 67.291,114.806C68.66,114.254 68.606,113.286 68.059,112.174C68.207,111.978 68.354,111.782 68.502,111.585Z" style="fill:rgb(40,32,36);fill-rule:nonzero;"/>
        <path d="M138.026,106.464C138.955,107.358 139.196,108.364 138.312,109.388C137.406,110.437 136.573,109.933 135.823,109.108C136.072,108.899 136.32,108.69 136.568,108.48C137.452,108.556 137.866,108.262 137.471,107.333C137.656,107.043 137.841,106.754 138.026,106.464Z" style="fill:rgb(40,32,36);fill-rule:nonzero;"/>
        <path d="M120.114,116.388C121.073,115.122 122.123,114.705 123.359,116.043C123.165,116.246 122.971,116.447 122.776,116.649C122.166,116.753 121.556,116.857 120.946,116.961C120.668,116.771 120.391,116.579 120.114,116.388Z" style="fill:rgb(40,32,36);fill-rule:nonzero;"/>
        <path d="M120.685,119.657C119.316,118.773 119.376,117.64 120.114,116.388C120.391,116.579 120.668,116.771 120.946,116.961C121.011,117.552 121.076,118.142 121.141,118.732C120.989,119.041 120.836,119.349 120.685,119.657Z" style="fill:rgb(40,32,36);fill-rule:nonzero;"/>
        <path d="M137.667,111.407C139.506,111.909 139.34,112.958 138.431,114.21C138.146,114.028 137.86,113.847 137.574,113.665C137.779,113.006 137.698,112.37 137.424,111.748C137.505,111.634 137.585,111.521 137.667,111.407Z" style="fill:rgb(40,32,36);fill-rule:nonzero;"/>
        <path d="M140.03,147.525C141.646,148.33 141.876,149.345 140.496,150.603C140.251,150.364 140.007,150.126 139.763,149.888C139.9,149.307 139.856,148.759 139.466,148.276C139.654,148.026 139.842,147.775 140.03,147.525Z" style="fill:rgb(40,32,36);fill-rule:nonzero;"/>
        <path d="M139.217,139.8C139.959,140.595 140.308,141.556 139.492,142.377C138.633,143.241 137.506,143.092 136.462,142.53C136.661,142.281 136.859,142.033 137.058,141.784C137.84,141.768 138.812,142.016 138.624,140.655C138.822,140.37 139.019,140.085 139.217,139.8Z" style="fill:rgb(40,32,36);fill-rule:nonzero;"/>
        <path d="M104.172,133.677C106.855,132.661 107.421,132.977 107.334,135.444C107.119,135.308 106.903,135.171 106.688,135.035C106.281,134.262 105.693,133.894 104.807,134.196C104.595,134.023 104.384,133.85 104.172,133.677Z" style="fill:rgb(40,32,36);fill-rule:nonzero;"/>
        <path d="M113.344,95.196C112.747,95.24 112.515,94.856 112.475,94.36C112.447,94.017 112.582,93.638 113.009,93.638C113.525,93.638 113.893,93.933 113.957,94.466C114.008,94.886 113.703,95.08 113.344,95.196Z" style="fill:rgb(40,32,36);fill-rule:nonzero;"/>
        <path d="M136.304,140.428C137.06,139.222 137.927,138.528 139.217,139.8C139.019,140.085 138.822,140.37 138.624,140.655C138.021,140.506 137.446,140.593 136.895,140.869C136.698,140.723 136.501,140.576 136.304,140.428Z" style="fill:rgb(40,32,36);fill-rule:nonzero;"/>
        <path d="M138.254,150.821C137.117,149.898 136.985,148.854 137.872,147.684C138.11,147.885 138.349,148.086 138.587,148.287C138.427,148.883 138.5,149.452 138.789,149.996C138.61,150.271 138.433,150.546 138.254,150.821Z" style="fill:rgb(40,32,36);fill-rule:nonzero;"/>
        <path d="M172.956,173.384C173.078,173.283 173.301,172.955 173.579,172.9C173.961,172.826 174.158,173.186 174.14,173.546C174.122,173.913 173.938,174.226 173.502,174.154C173.194,174.104 172.745,174.117 172.956,173.384Z" style="fill:rgb(40,32,36);fill-rule:nonzero;"/>
        <path d="M115.263,105.443C114.003,105.022 113.45,104.424 114.739,103.362C115.077,103.617 115.416,103.872 115.754,104.127C115.722,104.387 115.689,104.647 115.658,104.907C115.525,105.085 115.393,105.264 115.263,105.443Z" style="fill:rgb(40,32,36);fill-rule:nonzero;"/>
        <path d="M83.96,111.949C83.701,111.88 83.481,111.583 83.555,111.225C83.632,110.846 84.001,110.679 84.362,110.796C84.528,110.85 84.723,111.129 84.725,111.309C84.73,111.681 84.565,112.008 83.96,111.949Z" style="fill:rgb(40,32,36);fill-rule:nonzero;"/>
        <path d="M111.388,74.654C111.321,75.013 111.104,75.275 110.71,75.261C110.359,75.249 110,75.143 110.115,74.655C110.193,74.319 110.283,73.932 110.758,74.009C111.095,74.064 111.481,74.132 111.388,74.654Z" style="fill:rgb(40,32,36);fill-rule:nonzero;"/>
        <path d="M117.704,67.924C118.213,67.697 118.326,68.123 118.486,68.421C118.713,68.845 118.466,69.11 118.092,69.215C117.71,69.321 117.38,69.145 117.24,68.768C117.081,68.338 117.373,68.108 117.704,67.924Z" style="fill:rgb(40,32,36);fill-rule:nonzero;"/>
        <path d="M116.919,64.28C116.354,65.81 115.443,66.352 113.978,65.309C114.15,65.083 114.322,64.856 114.494,64.63C115.297,64.932 115.663,64.202 116.21,63.901C116.446,64.027 116.683,64.154 116.919,64.28Z" style="fill:rgb(40,32,36);fill-rule:nonzero;"/>
        <path d="M140.97,111.742C139.998,111.037 139.682,110.281 140.789,109.415C141.009,109.563 141.229,109.71 141.449,109.858C141.455,110.209 141.461,110.561 141.467,110.913C141.301,111.189 141.136,111.465 140.97,111.742Z" style="fill:rgb(40,32,36);fill-rule:nonzero;"/>
        <path d="M104.312,151.619C103.69,151.614 103.432,151.254 103.444,150.739C103.458,150.178 103.841,149.903 104.372,150.01C104.692,150.075 105.001,150.26 105.063,150.693C105.155,151.333 104.762,151.5 104.312,151.619Z" style="fill:rgb(40,32,36);fill-rule:nonzero;"/>
        <path d="M175.272,93.614C174.274,92.751 174.397,91.687 174.73,90.586C174.995,90.747 175.26,90.908 175.526,91.069C175.371,91.697 175.49,92.283 175.796,92.841C175.622,93.099 175.447,93.356 175.272,93.614Z" style="fill:rgb(40,32,36);fill-rule:nonzero;"/>
        <path d="M65.647,111.831C66.529,110.942 67.462,110.646 68.502,111.585C68.354,111.782 68.207,111.978 68.059,112.174C67.472,112.238 66.884,112.302 66.296,112.366C66.08,112.188 65.863,112.009 65.647,111.831Z" style="fill:rgb(40,32,36);fill-rule:nonzero;"/>
        <path d="M113.978,65.309C112.785,64.461 112.776,63.419 113.479,62.261C113.717,62.501 113.955,62.742 114.193,62.982C114.293,63.531 114.394,64.081 114.494,64.63C114.322,64.856 114.15,65.083 113.978,65.309Z" style="fill:rgb(40,32,36);fill-rule:nonzero;"/>
        <path d="M113.479,62.261C114.416,61.797 115.396,60.859 116.139,62.504L116.194,62.452C115.527,62.628 114.86,62.805 114.193,62.982C113.955,62.742 113.717,62.501 113.479,62.261Z" style="fill:rgb(40,32,36);fill-rule:nonzero;"/>
        <path d="M118.812,59.089C118.793,59.877 119.872,60.536 119.085,61.414C117.65,60.318 117.604,59.932 118.812,59.089Z" style="fill:rgb(40,32,36);fill-rule:nonzero;"/>
        <path d="M85.129,118.954C84.991,118.18 84.082,117.497 84.854,116.616C86.022,117.268 86.502,118.001 85.129,118.954Z" style="fill:rgb(40,32,36);fill-rule:nonzero;"/>
        <path d="M94.779,115.225C96.113,115.929 95.962,116.894 95.26,117.957C95.058,117.81 94.858,117.66 94.659,117.507C94.754,116.9 94.676,116.324 94.342,115.796C94.488,115.605 94.633,115.416 94.779,115.225Z" style="fill:rgb(40,32,36);fill-rule:nonzero;"/>
        <path d="M135.153,111.773C135.869,110.81 136.694,110.609 137.666,111.409C137.585,111.521 137.505,111.634 137.424,111.748C136.898,111.938 136.372,112.127 135.846,112.316C135.615,112.135 135.384,111.954 135.153,111.773Z" style="fill:rgb(40,32,36);fill-rule:nonzero;"/>
        <path d="M123.359,116.043C123.947,116.98 124.459,117.917 123.372,118.862C123.08,118.633 122.788,118.404 122.497,118.175C122.857,117.716 122.856,117.19 122.776,116.649C122.971,116.447 123.165,116.246 123.359,116.043Z" style="fill:rgb(40,32,36);fill-rule:nonzero;"/>
        <path d="M123.372,118.862C122.694,119.865 121.783,120.076 120.685,119.656C120.836,119.349 120.989,119.041 121.141,118.732C121.593,118.546 122.044,118.361 122.497,118.175C122.788,118.404 123.08,118.633 123.372,118.862Z" style="fill:rgb(40,32,36);fill-rule:nonzero;"/>
        <path d="M110.492,127.797C111.208,126.567 112.224,126.671 113.326,127.162C113.12,127.404 112.913,127.646 112.706,127.889C112.232,128.055 111.758,128.221 111.284,128.387C111.02,128.19 110.756,127.994 110.492,127.797Z" style="fill:rgb(40,32,36);fill-rule:nonzero;"/>
        <path d="M110.61,130.522C109.657,129.653 109.468,128.751 110.492,127.797C110.756,127.994 111.02,128.19 111.284,128.387C111.241,128.874 111.198,129.359 111.155,129.846C110.974,130.071 110.792,130.297 110.61,130.522Z" style="fill:rgb(40,32,36);fill-rule:nonzero;"/>
        <path d="M124.972,135.641C125.843,134.691 126.776,134.581 127.781,135.433C127.64,135.623 127.5,135.813 127.359,136.004C126.787,136.066 126.214,136.129 125.642,136.191C125.418,136.008 125.195,135.824 124.972,135.641Z" style="fill:rgb(40,32,36);fill-rule:nonzero;"/>
        <path d="M97.348,148.193C96.792,147.424 96.705,146.638 97.265,145.83C97.566,146.097 97.868,146.364 98.169,146.631C98.156,146.904 98.142,147.177 98.129,147.45C97.869,147.697 97.608,147.945 97.348,148.193Z" style="fill:rgb(40,32,36);fill-rule:nonzero;"/>
        <path d="M136.462,142.53C135.594,141.891 135.54,141.19 136.305,140.428C136.501,140.576 136.698,140.723 136.895,140.869C136.949,141.174 137.003,141.479 137.058,141.784C136.859,142.033 136.661,142.281 136.462,142.53Z" style="fill:rgb(40,32,36);fill-rule:nonzero;"/>
        <path d="M97.265,145.83C97.889,145.079 98.646,145.055 99.474,145.429C99.32,145.732 99.167,146.035 99.014,146.337C98.732,146.436 98.451,146.533 98.169,146.631C97.868,146.364 97.566,146.097 97.265,145.83Z" style="fill:rgb(40,32,36);fill-rule:nonzero;"/>
        <path d="M140.496,150.603C139.796,151.168 139.055,151.294 138.254,150.82C138.433,150.546 138.61,150.271 138.789,149.996C139.113,149.96 139.438,149.924 139.763,149.888C140.007,150.126 140.251,150.364 140.496,150.603Z" style="fill:rgb(40,32,36);fill-rule:nonzero;"/>
        <path d="M116.139,62.504C117.069,62.802 117.251,63.428 116.917,64.28C116.683,64.154 116.446,64.027 116.21,63.901C116.205,63.418 116.199,62.935 116.194,62.452L116.139,62.504Z" style="fill:rgb(40,32,36);fill-rule:nonzero;"/>
        <path d="M121.35,113.216C120.542,112.61 120.489,111.861 120.931,111.017C121.188,111.165 121.446,111.313 121.705,111.46C121.787,111.799 121.87,112.139 121.953,112.478C121.751,112.724 121.551,112.97 121.35,113.216Z" style="fill:rgb(40,32,36);fill-rule:nonzero;"/>
        <path d="M141.191,108.458C141.859,107.679 142.656,107.604 143.544,108.028C143.376,108.312 143.208,108.595 143.04,108.879C142.697,108.925 142.355,108.971 142.013,109.017C141.739,108.831 141.465,108.645 141.191,108.458Z" style="fill:rgb(40,32,36);fill-rule:nonzero;"/>
        <path d="M135.823,109.108C135.235,108.363 135.143,107.631 135.88,106.921C136.119,107.109 136.357,107.297 136.595,107.485C136.586,107.817 136.577,108.149 136.568,108.48C136.32,108.69 136.072,108.899 135.823,109.108Z" style="fill:rgb(40,32,36);fill-rule:nonzero;"/>
        <path d="M135.88,106.921C136.434,106.008 137.183,106.012 138.026,106.465C137.841,106.754 137.656,107.043 137.471,107.333C137.179,107.383 136.887,107.435 136.595,107.485C136.357,107.297 136.119,107.109 135.88,106.921Z" style="fill:rgb(40,32,36);fill-rule:nonzero;"/>
        <path d="M137.872,147.684C138.536,146.883 139.261,146.901 140.03,147.526C139.842,147.775 139.654,148.026 139.466,148.276C139.173,148.28 138.88,148.283 138.587,148.287C138.349,148.086 138.11,147.885 137.872,147.684Z" style="fill:rgb(40,32,36);fill-rule:nonzero;"/>
        <path d="M177.432,93.239C176.842,94.11 176.102,94.118 175.272,93.614C175.447,93.356 175.622,93.099 175.796,92.841C176.086,92.773 176.377,92.705 176.667,92.637C176.922,92.838 177.177,93.038 177.432,93.239Z" style="fill:rgb(40,32,36);fill-rule:nonzero;"/>
        <path d="M140.789,109.415C140.923,109.096 141.058,108.777 141.192,108.458C141.465,108.645 141.739,108.831 142.013,109.017C141.825,109.297 141.637,109.578 141.449,109.858C141.229,109.71 141.009,109.563 140.789,109.415Z" style="fill:rgb(40,32,36);fill-rule:nonzero;"/>
        <path d="M141.756,112.245C141.494,112.077 141.232,111.909 140.97,111.741C141.136,111.465 141.301,111.189 141.467,110.913C141.849,110.957 142.156,111.105 142.288,111.499C142.111,111.748 141.934,111.996 141.756,112.245Z" style="fill:rgb(40,32,36);fill-rule:nonzero;"/>
        <path d="M113.326,127.162C113.573,127.395 113.821,127.628 114.068,127.861C113.901,128.056 113.734,128.251 113.567,128.446C113.144,128.471 112.864,128.274 112.706,127.889C112.913,127.646 113.12,127.404 113.326,127.162Z" style="fill:rgb(40,32,36);fill-rule:nonzero;"/>
    </g>
</svg>
