<?xml version="1.0" encoding="UTF-8" standalone="no"?>
<!DOCTYPE svg PUBLIC "-//W3C//DTD SVG 1.1//EN" "http://www.w3.org/Graphics/SVG/1.1/DTD/svg11.dtd">
<svg width="100%" height="100%" viewBox="0 0 870 406" version="1.1" xmlns="http://www.w3.org/2000/svg" xmlns:xlink="http://www.w3.org/1999/xlink" xml:space="preserve" xmlns:serif="http://www.serif.com/" style="fill-rule:evenodd;clip-rule:evenodd;stroke-linejoin:round;stroke-miterlimit:2;">
    <g transform="matrix(1,0,0,1,-1699.4,-423.713)">
        <path d="M2243.32,783.623C2221.14,769.559 2224.17,801.955 2201.34,791.598L2201.33,799.582C2202.72,801.097 2237,790.137 2240.78,788.061C2243.08,786.798 2244.16,788.14 2243.32,783.623ZM2285.32,763.616C2272.29,758.633 2260.96,752.59 2247.31,748.601C2214.07,738.88 2178.13,734.428 2145.34,721.6L2157.35,761.577L2160.31,739.586C2175.67,724.681 2179.16,743.884 2184.33,755.581C2190.25,731.454 2211.51,746.716 2211.34,765.587C2216.73,765.176 2218.49,760.666 2224.43,759.706C2236.93,757.686 2259.63,763.524 2257.34,779.602C2259.15,781.405 2281.43,770.172 2284.06,767.752C2285.59,766.355 2286.13,764.451 2285.32,763.616ZM2035.83,719.1L2033.8,721.145L2046.81,734.083L2048.85,732.038L2035.83,719.1ZM2123.11,715.792C2122.63,715.211 2107.26,710.873 2109.38,716.517C2116.98,730.603 2120.35,746.595 2126.78,761.13C2127.86,763.559 2127.79,767.047 2131.31,767.59C2129.45,754.452 2125.54,741.459 2123.56,728.36C2123.07,725.116 2123.99,716.83 2123.11,715.792ZM2085.3,723.582C2088.84,711.461 2072.54,695.422 2079.61,714.306C2080.47,716.593 2082.73,723.177 2085.3,723.582ZM2059.04,699.879L2035.34,691.592C2034.47,695.335 2037.42,696.355 2039.32,698.6C2046.55,707.18 2054.46,715.566 2062.33,723.581L2059.04,699.879ZM1755.3,647.583L1747.33,650.581L1757.31,657.581L1755.3,647.583ZM1797.31,671.581L1789.34,639.601C1790.18,650.863 1778.99,672.929 1797.31,671.581ZM1949.32,649.558C1952.85,644.437 1900.76,619.94 1895.33,619.602L1901.35,647.589C1909.06,642.096 1906.1,632.988 1918.26,633.447C1937.87,634.186 1927.37,664.152 1949.32,649.558ZM1875.33,619.581C1887.61,617.65 1887.61,611.532 1875.33,609.601L1875.33,619.581ZM1865.32,603.56C1856.88,593.867 1842.35,592.774 1831.34,587.592C1828.72,591.223 1843.89,670.521 1848.64,671.674C1851.88,672.459 1864.12,672.483 1865.08,668.438C1866.41,662.898 1854.76,627.697 1855.2,616.621C1855.43,610.721 1858.86,604.253 1865.32,603.56ZM1807.32,615.591L1807.32,582.591C1807.32,581.913 1810.11,580.889 1807.48,578.643C1805.97,577.358 1797.57,572.362 1795.29,574.619L1807.32,615.591ZM1767.3,599.581C1765.16,587.576 1767.33,569.597 1765.31,558.604C1764.68,555.173 1763.18,552.986 1759.33,553.601L1761.91,580.01L1767.3,599.581ZM1739.34,523.614L1767.36,536.74C1784.83,533.029 1781.36,540.506 1788.78,547.692C1802.72,561.19 1842.66,572.456 1861.36,582.556C1873.77,589.261 1885.39,598.899 1897.98,605.934C1913.61,614.665 1954.31,628.607 1960.82,645.16C1961.8,647.632 1960.66,652.207 1961.56,653.354C1963.81,656.209 2021.16,664.13 2032.41,669.501C2040.95,673.571 2040.87,680.845 2042.74,681.622C2045.77,682.888 2075.27,689.63 2078.43,689.684C2091.94,689.913 2091.98,681.601 2107.71,696.201C2158.49,712.429 2224.24,718.126 2272.04,739.877C2277.43,742.333 2287.65,750.443 2290.84,751.229C2298.12,753.021 2380.13,717.481 2394.82,712.092C2429.4,699.409 2465.41,685.607 2502.35,681.62C2514.83,680.273 2543.89,678.595 2554.81,683.101C2576.45,692.03 2573.58,739.532 2545.33,737.581C2543.15,729.584 2551.01,726.338 2553.48,720.755C2559.59,706.913 2552.57,699.401 2538.32,699.431C2470.99,699.577 2399.55,731.236 2335.32,750.586C2330.03,752.178 2300.72,758.395 2299.56,759.832C2298.27,761.437 2300.82,769.125 2294.33,775.593C2276.58,793.271 2177.6,828.652 2152.24,829.614C2143.47,829.947 2135.47,827.475 2127.31,824.603C2105.29,816.853 2106.57,814.379 2091.37,800.548C2069.45,780.6 2021.31,746.611 2010.34,719.575C2008.45,714.916 2005.29,697.752 2003.44,696.471C1998.2,692.819 1955.9,696.803 1959.21,676.66C1961.26,664.166 1980.92,674.139 1988.49,675.436C1990.5,675.78 1995.86,677.023 1995.31,673.612C1982.95,675.003 1965.4,662.561 1954.52,663.618C1944.77,664.564 1937.48,676.537 1934.09,677.118C1931.74,677.521 1928.46,675.243 1924.86,675.936C1918.66,677.131 1911.74,681.268 1905.39,682.661C1850.05,694.819 1739.67,710.053 1718.76,639.151C1714.13,623.441 1700.35,566.625 1699.44,552.304C1699.08,546.726 1701.16,543.239 1701.31,538.578C1701.58,530.676 1697.99,526.381 1703.58,516.843C1710.34,505.292 1719.18,515.238 1727.26,516.803C1740.52,519.371 1828.52,486.712 1849.33,480.596C1937.02,454.818 2092.33,405.584 2179.31,430.605C2197.38,435.803 2223.58,445.417 2215.41,468.691C2208.38,488.723 2170.34,498.24 2173.28,478.703C2175.1,466.592 2209.72,467.13 2192.03,455.885C2151.16,429.903 2032.95,452.666 1985.3,462.568C1947.84,470.352 1906.86,479.77 1869.69,488.954C1826,499.746 1783.34,514.097 1739.34,523.614Z" style="fill:white;fill-rule:nonzero;"/>
    </g>
</svg>
